<?xml version="1.0" encoding="utf-8"?>
<!-- Generator: Adobe Illustrator 19.0.0, SVG Export Plug-In . SVG Version: 6.00 Build 0)  -->
<svg version="1.1" id="Layer_1" xmlns="http://www.w3.org/2000/svg" xmlns:xlink="http://www.w3.org/1999/xlink" x="0px" y="0px"
	 viewBox="0 0 42.9 43.1" style="enable-background:new 0 0 42.9 43.1;" xml:space="preserve">
<style type="text/css">
	.st0{fill-rule:evenodd;clip-rule:evenodd;fill:#B3B3B3;}
</style>
<g id="XMLID_2_">
	<path id="XMLID_4_" class="st0" d="M29.2,19.9c1.7-5.2,0.3-11-3.6-14.9c-2.8-2.8-6.5-4.3-10.5-4.3S7.5,2.2,4.7,5
		c-5.8,5.8-5.8,15.1,0,20.9c2.8,2.8,6.5,4.3,10.5,4.3c1.5,0,3-0.2,4.5-0.7l4,4H27v4.5h4.5v4.5l10.7,0V33L29.2,19.9z M38.5,38.8h-3.1
		v-4.5h-4.5v-4.5h-5.6l-4.7-4.7l-1.2,0.5c-1.3,0.6-2.8,0.8-4.2,0.8c-2.9,0-5.7-1.1-7.8-3.2C3.1,18.9,3.1,12,7.4,7.7
		c2.1-2.1,4.8-3.2,7.8-3.2c2.9,0,5.7,1.1,7.8,3.2c3.2,3.2,4.1,7.9,2.4,12l-0.5,1.2l13.7,13.7V38.8z"/>
	<circle id="XMLID_3_" class="st0" cx="18.2" cy="13" r="1.9"/>
</g>
</svg>
