<?xml version="1.0" encoding="utf-8"?>
<!-- Generator: Adobe Illustrator 19.0.0, SVG Export Plug-In . SVG Version: 6.00 Build 0)  -->
<svg version="1.1" id="Layer_1" xmlns="http://www.w3.org/2000/svg" xmlns:xlink="http://www.w3.org/1999/xlink" x="0px" y="0px"
	 viewBox="0 0 36.9 40.4" style="enable-background:new 0 0 36.9 40.4;" xml:space="preserve">
<style type="text/css">
	.st0{fill:#B3B3B3;}
</style>
<g>
	<path class="st0" d="M29.4,19.2c1-1.8,1.6-3.9,1.6-6c0-6.9-5.6-12.5-12.5-12.5S6,6.3,6,13.2c0,2.2,0.6,4.3,1.6,6
		C3.3,21,0.3,25.1,0.3,30v10h4.4V30c0-3.5,2.5-6.4,5.9-7c2.1,1.7,4.8,2.7,7.8,2.7c2.9,0,5.7-1,7.8-2.7c3.4,0.6,5.9,3.5,5.9,7v10h4.4
		V30C36.7,25.1,33.7,21,29.4,19.2z M18.5,21.2c-4.4,0-8.1-3.6-8.1-8.1c0-4.4,3.6-8.1,8.1-8.1c4.4,0,8.1,3.6,8.1,8.1
		C26.5,17.6,22.9,21.2,18.5,21.2z"/>
</g>
</svg>
