<?xml version="1.0" encoding="utf-8"?>
<!-- Generator: Adobe Illustrator 19.0.0, SVG Export Plug-In . SVG Version: 6.00 Build 0)  -->
<svg version="1.1" id="Layer_1" xmlns="http://www.w3.org/2000/svg" xmlns:xlink="http://www.w3.org/1999/xlink" x="0px" y="0px"
	 viewBox="0 0 46 39" style="enable-background:new 0 0 46 39;" xml:space="preserve">
<style type="text/css">
	.st0{fill:#B3B3B3;}
</style>
<path id="XMLID_2_" class="st0" d="M12.3,9.3L10.1,1H1v3.8h6.2L9,11.7l0,0l5.1,18.9h25.2L45,9.3H12.3z M36.4,26.7H17l-3.7-13.7H40
	L36.4,26.7z M22.1,32h3.8c0,2.9-2.4,5.3-5.3,5.3c-2.9,0-5.3-2.4-5.3-5.3h3.8c0,0.8,0.7,1.5,1.5,1.5C21.4,33.5,22.1,32.9,22.1,32z
	 M34.2,32H38c0,2.9-2.4,5.3-5.3,5.3c-2.9,0-5.3-2.4-5.3-5.3h3.8c0,0.8,0.7,1.5,1.5,1.5C33.6,33.5,34.2,32.9,34.2,32z"/>
</svg>
