<?xml version="1.0" encoding="utf-8"?>
<!-- Generator: Adobe Illustrator 19.0.0, SVG Export Plug-In . SVG Version: 6.00 Build 0)  -->
<svg version="1.1" id="Layer_1" xmlns="http://www.w3.org/2000/svg" xmlns:xlink="http://www.w3.org/1999/xlink" x="0px" y="0px"
	 viewBox="0 0 36.3 36.3" style="enable-background:new 0 0 36.3 36.3;" xml:space="preserve">
<style type="text/css">
	.st0{fill:#B3B3B3;}
</style>
<path id="XMLID_2_" class="st0" d="M35.8,32.9L28,25.2c2.1-2.7,3.3-6.1,3.3-9.6C31.3,7,24.3,0,15.6,0S0,7,0,15.6s7,15.6,15.6,15.6
	c3.5,0,6.8-1.2,9.6-3.3l7.8,7.8c0.4,0.4,0.9,0.6,1.4,0.6c0.5,0,1-0.2,1.4-0.6c0.4-0.4,0.6-0.9,0.6-1.4
	C36.3,33.8,36.1,33.3,35.8,32.9z M27.3,15.6c0,6.4-5.2,11.7-11.7,11.7C9.2,27.3,4,22.1,4,15.6C4,9.2,9.2,4,15.6,4
	C22.1,4,27.3,9.2,27.3,15.6z"/>
</svg>
