<?xml version="1.0" encoding="UTF-8"?>
<svg xmlns:xlink="http://www.w3.org/1999/xlink" width="90px" height="16px" viewBox="0 0 90 16" version="1.1"
     xmlns="http://www.w3.org/2000/svg">
    <!-- Generator: Sketch 63.1 (92452) - https://sketch.com -->
    <title>Leon Paul Logo</title>
    <desc>Created with Sketch.</desc>
    <g id="Core-Style-Guide" stroke="none" stroke-width="1" fill="none" fill-rule="evenodd">
        <g id="Logo-/-Leon-Paul-Logo" fill="#1A1A1A">
            <path d="M25.3327066,12.5690118 C24.6676627,12.972281 23.8222319,13.1743727 22.7958101,13.1743727 C21.8301215,13.1743727 21.1898543,13.0423882 20.8753105,12.7781143 C20.561069,12.5132308 20.403646,11.9828542 20.403646,11.1872892 L20.403646,3.98910289 C20.403646,3.48280658 20.545659,3.10270332 20.8302894,2.84940275 C21.1143155,2.59579737 21.5430739,2.4692995 22.1171691,2.4692995 L22.1171691,1.76792212 L16.7950044,1.76792212 L16.7950044,2.4692995 C17.4017324,2.48057762 17.8320016,2.59915033 18.0861143,2.82440799 C18.3393205,3.04997047 18.4665279,3.42702559 18.4665279,3.95587815 L18.4665279,11.4625364 C18.4665279,12.04717 18.3387162,12.4675087 18.0818841,12.7235526 C17.8253542,12.9795965 17.3959914,13.1131051 16.7950044,13.1240784 L16.7950044,13.8760549 L26.9096555,13.8760549 L27.6381522,10.9032025 L26.8764185,10.6944048 C26.5123212,11.5405689 25.9977506,12.1657427 25.3327066,12.5690118 L25.3327066,12.5690118 Z M73.2880884,12.0139452 C73.0669106,12.2754758 72.8390855,12.468728 72.6046129,12.5940066 C72.3704425,12.7192852 72.114819,12.7817721 71.8392533,12.7817721 C71.508091,12.7817721 71.233734,12.6830123 71.0152756,12.4854928 C70.7977238,12.2876684 70.6883435,12.03894 70.6883435,11.7380884 C70.6883435,11.3372578 70.8926006,10.9894649 71.3017189,10.6944048 C71.7093265,10.3993446 72.3716511,10.126536 73.2880884,9.87628355 L73.2880884,12.0139452 Z M75.1004163,12.7317826 C74.9846908,12.7317826 74.9015981,12.6772209 74.8526489,12.5690118 C74.8024911,12.4608028 74.7777144,12.2699891 74.7777144,11.9968757 L74.7777144,7.78830657 C74.7777144,7.04273113 74.6051836,6.51113524 74.2601222,6.1938237 C73.9147586,5.87651216 73.3406634,5.71770399 72.5345129,5.71770399 C71.6186799,5.71770399 70.8608742,5.90028767 70.2623044,6.26454059 C69.6634325,6.62940314 69.3642987,7.08449067 69.3642987,7.6298032 C69.3642987,7.96387952 69.4108306,8.24247966 69.5044988,8.464994 C69.5984691,8.68750833 69.7117773,8.79907032 69.8438192,8.79907032 C70.0924931,8.79907032 70.3574834,8.72530529 70.63879,8.57747042 C70.9197945,8.43024518 71.0609011,8.30892915 71.0609011,8.21443676 C71.0609011,8.17542055 71.0040959,8.04617935 70.8913919,7.82610352 C70.7780837,7.60633251 70.7221849,7.4100322 70.7221849,7.23750738 C70.7221849,6.9924368 70.8306587,6.79461241 71.0485127,6.64433903 C71.2663667,6.49437046 71.5600618,6.41908137 71.9302021,6.41908137 C72.3610757,6.41908137 72.6937487,6.55167553 72.931545,6.8159494 C73.168737,7.08022328 73.2880884,7.45483988 73.2880884,7.93888476 L73.2880884,9.0743175 C71.7866783,9.46966147 70.7131203,9.91225162 70.0677164,10.4023928 C69.4220103,10.8922291 69.0993084,11.4957612 69.0993084,12.2142081 C69.0993084,12.7208093 69.2827167,13.141148 69.6498355,13.4749195 C70.01635,13.8089958 70.4813671,13.976034 71.0442825,13.976034 C71.4144229,13.976034 71.7866783,13.8925149 72.1619553,13.7257816 C72.5375344,13.5584386 72.9122071,13.305138 73.2880884,12.9655751 C73.3920298,13.3219028 73.5443161,13.5950163 73.7431344,13.7836963 C73.9413483,13.9729858 74.1734036,14.067783 74.4383939,14.067783 C74.6867656,14.067783 74.9293964,13.994018 75.1665883,13.846488 C75.4037803,13.6992627 75.6192171,13.4861976 75.8125965,13.2079023 L75.8125965,12.4982949 C75.6911301,12.5705359 75.5690593,12.6272313 75.447895,12.6692957 C75.3264285,12.7110552 75.2113073,12.7317826 75.1004163,12.7317826 L75.1004163,12.7317826 Z M30.7627409,6.90769846 C31.0576445,6.60440837 31.4153965,6.45261092 31.834486,6.45261092 C32.3034311,6.45261092 32.6883771,6.61111429 32.9893238,6.92873064 C33.2899684,7.24573736 33.4567582,7.67430607 33.4902975,8.21443676 L30.121265,8.21443676 C30.2539112,7.64656798 30.4675351,7.21129336 30.7627409,6.90769846 L30.7627409,6.90769846 Z M30.2369905,9.03255796 C30.3143423,8.98835991 30.5406567,8.96610848 30.9159337,8.96610848 L35.3440207,8.96610848 C35.2669711,8.00838239 34.93037,7.22501 34.3345196,6.6156865 C33.7380649,6.00575337 33.0183308,5.70093921 32.1744108,5.70093921 C31.1640032,5.70093921 30.3212919,6.11121907 29.644766,6.93238841 C28.9691466,7.75386257 28.6313369,8.7792574 28.6313369,10.0097922 C28.6313369,11.2174659 28.9567582,12.1922615 29.6082052,12.9323503 C30.2590479,13.6724391 31.1144497,14.0430931 32.1744108,14.0430931 C32.7974552,14.0430931 33.3576512,13.8882475 33.8543947,13.579166 C34.3511381,13.2703892 34.8228027,12.7817721 35.2696905,12.1139243 L34.831263,11.6545694 C34.4665615,11.9721857 34.1054858,12.2071974 33.7468274,12.3599093 C33.3878668,12.5132308 33.0267911,12.5897392 32.6626939,12.5897392 C31.972571,12.5897392 31.3764185,12.2684651 30.8748405,11.6253072 C30.3723561,10.9827589 30.121265,10.2213332 30.121265,9.34163952 C30.121265,9.18039283 30.1599409,9.07736564 30.2369905,9.03255796 L30.2369905,9.03255796 Z M41.4533002,12.6439961 C41.1327134,13.1256025 40.6664876,13.3661009 40.0540187,13.3661009 C39.4140536,13.3661009 38.8855838,12.9811206 38.4689116,12.2099408 C38.0522393,11.4387609 37.8437521,10.4386657 37.8437521,9.20813092 C37.8437521,8.31197729 38.0054052,7.62035397 38.3284093,7.13326094 C38.6511113,6.6458631 39.1073659,6.4026214 39.6980796,6.4026214 C40.3601021,6.4026214 40.8985429,6.77967652 41.3121936,7.53378674 C41.7261465,8.28820179 41.9328208,9.28585853 41.9328208,10.5273666 C41.9328208,11.4570498 41.7726784,12.1626946 41.4533002,12.6439961 L41.4533002,12.6439961 Z M39.8965957,5.73416395 C38.8097428,5.73416395 37.9144565,6.12554533 37.2107366,6.90769846 C36.5070167,7.68985159 36.1553079,8.69025166 36.1553079,9.9095083 C36.1553079,11.0839572 36.5139663,12.0639348 37.2315853,12.8488312 C37.9489022,13.6334229 38.8369368,14.0263283 39.8965957,14.0263283 C40.9840529,14.0263283 41.8778285,13.6376903 42.5785268,12.8613286 C43.2795273,12.0846621 43.6297254,11.0949306 43.6297254,9.89274352 C43.6297254,8.70152979 43.2737863,7.71088377 42.5619083,6.92019584 C41.8503324,6.12981273 40.9616934,5.73416395 39.8965957,5.73416395 L39.8965957,5.73416395 Z M52.3544618,11.6048846 L52.3544618,8.42292965 C52.3544618,7.48257797 52.185557,6.79644129 51.849258,6.36482445 C51.5129591,5.9332076 50.9805613,5.71770399 50.2517626,5.71770399 C49.82663,5.71770399 49.3924327,5.81067231 48.9479621,5.99721857 C48.5037937,6.18437446 48.0581146,6.46053609 47.6112268,6.82844678 L47.6112268,5.71770399 L47.1812597,5.71770399 L44.9129793,6.46907089 L44.9129793,6.93665581 L46.0469684,7.47952982 L46.0469684,11.6048846 C46.0469684,12.1608657 45.9572282,12.5482845 45.7777479,12.765617 C45.5979655,12.982035 45.2770765,13.1021318 44.813268,13.1240784 L44.813268,13.8760549 L48.7950715,13.8760549 L48.7950715,13.1240784 C48.3367018,13.0908537 48.0251796,12.9753291 47.8599006,12.7781143 C47.6940173,12.5799851 47.6112268,12.1889086 47.6112268,11.6048846 L47.6112268,7.61334324 C48.0085611,7.36248119 48.3714497,7.17776381 48.6995904,7.05797184 C49.0283355,6.93817988 49.3465051,6.8784363 49.65561,6.8784363 C50.0864836,6.8784363 50.3838045,6.97993942 50.5496878,7.18325046 C50.7155711,7.38625669 50.7980595,7.78830657 50.7980595,8.3897049 L50.7980595,11.6048846 C50.7980595,12.1889086 50.7137581,12.5799851 50.5454576,12.7781143 C50.3774592,12.9753291 50.0668435,13.0908537 49.6142147,13.1240784 L49.6066608,13.8760549 L53.4225811,13.8760549 L53.4225811,13.1240784 C53.0134627,13.0908537 52.7333647,12.977158 52.582287,12.7817721 C52.4300007,12.5873007 52.3544618,12.1943952 52.3544618,11.6048846 L52.3544618,11.6048846 Z M67.1410394,2.5445886 C66.3385147,2.02701415 65.0957497,1.76792212 63.4124421,1.76792212 L58.8526153,1.76792212 L58.8526153,2.4692995 C59.4756597,2.4692995 59.9016988,2.59457812 60.1307326,2.84544017 C60.3597663,3.09569259 60.4742832,3.61905851 60.4742832,4.41492827 L60.4742832,11.228744 C60.4742832,11.9468861 60.3621836,12.4230058 60.1394951,12.6564935 C59.9159001,12.8905908 59.4756597,13.0463508 58.8187739,13.1240784 L58.8187739,13.8760549 L64.0747667,13.8760549 L64.0747667,13.1240784 C63.4073054,13.0463508 62.9598133,12.8890667 62.7338011,12.6525309 C62.5071846,12.4162999 62.3944806,11.9413995 62.3944806,11.228744 L62.3944806,3.23804081 C62.3944806,2.9149378 62.4636742,2.71437008 62.6017592,2.63633766 C62.7392399,2.55861005 63.0483449,2.51959384 63.5281676,2.51959384 C64.3838716,2.51959384 65.0531458,2.73509745 65.5359901,3.16640948 C66.0185322,3.59802633 66.2599543,4.19271875 66.2599543,4.94926749 C66.2599543,5.70093921 66.0309206,6.31361567 65.5731552,6.78638243 C65.1144833,7.25975882 64.5249782,7.49598979 63.8013161,7.49598979 C63.7683811,7.49598979 63.717619,7.49385609 63.6493319,7.48806462 C63.579534,7.48257797 63.5281676,7.47952982 63.4952327,7.47952982 C63.3299537,7.47952982 63.2208756,7.50635347 63.1689049,7.55878151 C63.1163298,7.61151435 63.0897401,7.7050923 63.0897401,7.8386009 C63.0897401,8.03947343 63.1589337,8.17389648 63.2973209,8.24400373 C63.4344994,8.31319655 63.7381656,8.34794536 64.2074129,8.34794536 C65.4266098,8.34794536 66.4216075,8.02819531 67.1911972,7.38778076 C67.9613913,6.74767103 68.3460351,5.93503648 68.3460351,4.94926749 C68.3460351,3.86382427 67.9441684,3.06246785 67.1410394,2.5445886 L67.1410394,2.5445886 Z M11.5118176,7.06985959 C11.50094,4.62098264 9.5085275,2.63877617 7.05291076,2.63877617 C4.59759619,2.63877617 2.60669442,4.62098264 2.59491036,7.06985959 L1.94588062,7.06985959 C1.94588062,4.26069231 4.24316793,1.98220647 7.07647888,1.98220647 C9.91099846,1.98220647 12.2094944,4.26069231 12.2094944,7.06985959 L11.5118176,7.06985959 Z M9.94937219,7.05766703 C9.94000537,5.420815 8.61686698,4.09548304 6.98613443,4.09548304 C5.3544954,4.09548304 4.03196132,5.420815 4.02229235,7.05766703 L3.36903243,7.05766703 C3.36903243,5.04254063 4.98737662,3.40904155 6.98613443,3.40904155 C8.98398577,3.40904155 10.6020278,5.04254063 10.6020278,7.05766703 L9.94937219,7.05766703 Z M7.16772981,11.8081957 C8.79967099,11.8081957 10.1222051,10.4846926 10.1321762,8.84692614 L10.785134,8.84692614 C10.785134,10.8626622 9.16678977,12.4952468 7.16772981,12.4952468 C5.17138924,12.4952468 3.55183643,10.8626622 3.55183643,8.84692614 L4.20358558,8.84692614 C4.21416102,10.4846926 5.53699725,11.8081957 7.16772981,11.8081957 L7.16772981,11.8081957 Z M8.50355872,7.05004667 C8.50355872,7.04577928 8.50537165,7.04242632 8.50537165,7.03876855 C8.50537165,6.23588806 7.85332035,5.58358576 7.04898274,5.58358576 C6.24434298,5.58358576 5.59289599,6.23588806 5.59289599,7.03876855 C5.59289599,7.04242632 5.59289599,7.04577928 5.59410461,7.05004667 L4.93147788,7.05004667 C4.93147788,5.87133032 5.88054791,4.91543312 7.04898274,4.91543312 C8.21741758,4.91543312 9.16527899,5.87133032 9.16527899,7.05004667 L8.50355872,7.05004667 Z M7.75632848,8.84143948 C7.75632848,9.17917357 7.46353992,9.45137262 7.10065131,9.45137262 C6.73836702,9.45137262 6.44376553,9.17917357 6.44376553,8.84143948 L7.75632848,8.84143948 Z M6.3972336,7.06254406 C6.3972336,6.72572441 6.69183509,6.45322055 7.05291076,6.45322055 C7.41579937,6.45322055 7.71040086,6.72572441 7.71040086,7.06254406 L6.3972336,7.06254406 Z M7.13630565,10.3207026 C7.94064326,10.3207026 8.59420533,9.66870511 8.59420533,8.86491018 C8.59420533,8.86277648 8.59269455,8.85850908 8.59269455,8.85515612 L9.25381052,8.85515612 C9.25381052,10.0350917 8.30625126,10.98916 7.13630565,10.98916 C5.96756866,10.98916 5.0200094,10.0350917 5.0200094,8.85515612 L5.68142752,8.85515612 C5.68142752,8.85850908 5.68021889,8.86277648 5.68021889,8.86491018 C5.68021889,9.66870511 6.3328745,10.3207026 7.13630565,10.3207026 L7.13630565,10.3207026 Z M7.07647888,13.9476863 C4.24316793,13.9476863 1.94588062,11.6701149 1.94588062,8.86033796 L2.64234875,8.86033796 C2.65322635,11.3092149 4.64503458,13.2917262 7.10065131,13.2917262 C9.5565702,13.2917262 11.5486806,11.3092149 11.559256,8.86033796 L12.2094944,8.86033796 C12.2094944,11.6701149 9.91099846,13.9476863 7.07647888,13.9476863 L7.07647888,13.9476863 Z M7.06832069,0 C3.24756597,0 0.118747062,3.03107199 0.00271939838,6.95220133 L0.00271939838,6.93635099 L0,8.86399573 C0.082186262,12.8207883 3.24635735,16 7.0885651,16 C10.9555496,16 14.0885987,12.7674458 14.1351306,8.78230554 L14.1351306,7.03206264 C14.0166857,3.11123812 10.8857517,0 7.06832069,0 L7.06832069,0 Z M89.9909353,13.1240784 C89.5443497,13.0908537 89.2379641,12.977158 89.0720808,12.7817721 C88.9068019,12.5873007 88.8243134,12.1943952 88.8243134,11.6048846 L88.8243134,1.52589968 L88.4022024,1.52589968 L86.1179077,2.26080661 L86.1179077,2.72839153 L87.2515947,3.27126555 L87.2515947,11.6048846 C87.2515947,12.1608657 87.1612503,12.5482845 86.9823743,12.765617 C86.802894,12.982035 86.4789834,13.1021318 86.0097361,13.1240784 L86.0097361,13.8760549 L90,13.8760549 L89.9909353,13.1240784 Z M85.0413281,13.6001981 L85.0413281,12.9405803 C85.0023501,12.9405803 84.961257,12.9421044 84.9168401,12.9445429 C84.8727254,12.947591 84.8071577,12.9488103 84.7186262,12.9488103 C84.3874639,12.9488103 84.1608474,12.8723019 84.0399852,12.7192852 C83.9185188,12.5662685 83.8574834,12.2392029 83.8574834,11.7380884 L83.8574834,5.71770399 L81.1099846,5.87651216 L81.1099846,6.41908137 C81.600987,6.4413328 81.9279192,6.53308186 82.0907809,6.69493818 C82.2530383,6.85648968 82.3343181,7.20976929 82.3343181,7.75508182 L82.3343181,12.0139452 C82.0581481,12.2641977 81.7578057,12.4550113 81.4326865,12.5857766 C81.106963,12.7162371 80.7622037,12.7817721 80.3981065,12.7817721 C79.9678372,12.7817721 79.6538978,12.662285 79.4581011,12.4230058 C79.261398,12.1837267 79.1641039,11.8020994 79.1641039,11.2790383 L79.1641039,5.71770399 L76.5326328,5.87651216 L76.5326328,6.45261092 L76.70607,6.45261092 C77.0426711,6.45261092 77.2726113,6.53734926 77.3974015,6.70713075 C77.5218895,6.87691223 77.583227,7.20976929 77.583227,7.7050923 L77.583227,11.3122631 C77.583227,12.1809834 77.7684483,12.8473072 78.1385886,13.3121487 C78.5072182,13.7769903 79.0290405,14.0095635 79.7022427,14.0095635 C80.0551601,14.0095635 80.4388975,13.9217771 80.8531525,13.7462041 C81.2668032,13.5712408 81.7602229,13.2831914 82.3343181,12.8823608 L82.3343181,14.0095635 L85.0413281,13.6001981 Z"
                  id="Leon-Paul-Logo"></path>
        </g>
    </g>
</svg>