<?xml version="1.0" encoding="UTF-8"?>
<svg width="248px" height="44px" viewBox="0 0 248 44" version="1.1" xmlns="http://www.w3.org/2000/svg" xmlns:xlink="http://www.w3.org/1999/xlink">
    <!-- Generator: Sketch 57.1 (83088) - https://sketch.com -->
    <title>Logo / Leon Paul Logo</title>
    <desc>Created with Sketch.</desc>
    <g id="Symbols" stroke="none" stroke-width="1" fill="none" fill-rule="evenodd">
        <g id="Navbar-/-Main-/-Dark" transform="translate(-596.000000, -22.000000)" fill="#FFFFFF">
            <g id="Navbar-/-Main---Transparent">
                <g id="Logo-/-Leon-Paul-Logo" transform="translate(596.000000, 22.000000)">
                    <path d="M69.8056805,34.5647825 C67.9731149,35.6737726 65.6434835,36.2295251 62.8151212,36.2295251 C60.1541127,36.2295251 58.3898207,35.8665676 57.523078,35.1398144 C56.6571678,34.4113848 56.2233801,32.9528491 56.2233801,30.7650454 L56.2233801,10.970033 C56.2233801,9.57771809 56.6147049,8.53243413 57.3990197,7.83585758 C58.1816692,7.13844278 59.363137,6.79057362 60.9450883,6.79057362 L60.9450883,4.86178583 L46.2795676,4.86178583 L46.2795676,6.79057362 C47.9514403,6.82158846 49.1370711,7.14766341 49.8372927,7.76712198 C50.5350165,8.3874188 50.8855435,9.42432036 50.8855435,10.8786649 L50.8855435,31.5219752 C50.8855435,33.1297175 50.5333512,34.285649 49.8256362,34.9897697 C49.1187538,35.6938904 47.9356208,36.061039 46.2795676,36.0912156 L46.2795676,38.1591511 L74.1510508,38.1591511 L76.1584637,29.9838067 L74.0594642,29.4096131 C73.056174,31.7365644 71.6382462,33.4557924 69.8056805,34.5647825 L69.8056805,34.5647825 Z M201.949399,33.0383494 C201.339932,33.7575584 200.712147,34.2890019 200.066044,34.6335181 C199.420775,34.9780343 198.71639,35.1498733 197.957054,35.1498733 C197.044518,35.1498733 196.288511,34.8782839 195.686537,34.3351051 C195.087061,33.791088 194.785658,33.107085 194.785658,32.2797432 C194.785658,31.177459 195.348499,30.2210284 196.475848,29.4096131 C197.599033,28.5981978 199.424105,27.8479739 201.949399,27.1597798 L201.949399,33.0383494 Z M206.943369,35.0124021 C206.624481,35.0124021 206.395515,34.8623574 206.260633,34.5647825 C206.12242,34.2672077 206.054146,33.7424701 206.054146,32.9914081 L206.054146,21.4178431 C206.054146,19.3675106 205.578728,17.9056219 204.627892,17.0330152 C203.676224,16.1604085 202.094272,15.723686 199.87288,15.723686 C197.349251,15.723686 195.261076,16.2257911 193.611683,17.2274866 C191.961458,18.2308586 191.137179,19.4823494 191.137179,20.9819588 C191.137179,21.9006687 191.2654,22.6668191 191.523508,23.2787335 C191.782448,23.8906479 192.094675,24.1974434 192.458524,24.1974434 C193.143759,24.1974434 193.873954,23.9945895 194.64911,23.5880437 C195.423434,23.1831743 195.812261,22.8495552 195.812261,22.5897011 C195.812261,22.4824065 195.655731,22.1269932 195.345169,21.5217847 C195.032942,20.9174144 194.87891,20.3775885 194.87891,19.9031453 C194.87891,19.2292012 195.177815,18.6851841 195.778124,18.2719323 C196.378433,17.8595188 197.187726,17.6524738 198.207668,17.6524738 C199.394964,17.6524738 200.311663,18.0171077 200.966924,18.7438609 C201.62052,19.470614 201.949399,20.5008097 201.949399,21.8319331 L201.949399,24.9543731 C197.81218,26.041569 194.853931,27.258692 193.075485,28.6065802 C191.296206,29.9536301 190.406983,31.6133432 190.406983,33.5890724 C190.406983,34.9822255 190.912375,36.138157 191.923991,37.0560287 C192.933942,37.9747385 194.215323,38.4340935 195.766467,38.4340935 C196.78641,38.4340935 197.81218,38.204416 198.846277,37.7458993 C199.881206,37.2857061 200.913637,36.5891296 201.949399,35.6553314 C202.235815,36.6352327 202.655449,37.3862948 203.203304,37.9051647 C203.749493,38.4257111 204.388934,38.6864034 205.11913,38.6864034 C205.803532,38.6864034 206.472114,38.4835496 207.12571,38.0778419 C207.779306,37.6729725 208.372954,37.0870435 208.905822,36.3217313 L208.905822,34.3703111 C208.571114,34.5689737 208.234741,34.7248862 207.900866,34.8405631 C207.566159,34.9554019 207.248936,35.0124021 206.943369,35.0124021 L206.943369,35.0124021 Z M84.7684415,18.9961708 C85.5810649,18.162123 86.5668703,17.74468 87.7216948,17.74468 C89.0138991,17.74468 90.0746391,18.1805643 90.9039146,19.0540093 C91.7323575,19.9257778 92.191956,21.1043417 92.2843752,22.5897011 L83.0008192,22.5897011 C83.3663332,21.028062 83.9549856,19.8310568 84.7684415,18.9961708 L84.7684415,18.9961708 Z M83.3197072,24.8395344 C83.5328544,24.7179898 84.1564762,24.6567983 85.1905728,24.6567983 L97.3924125,24.6567983 C97.180098,22.0230516 96.252575,19.8687775 94.6106762,18.1931379 C92.9671121,16.5158218 90.9838448,15.6775828 88.6583764,15.6775828 C85.8741422,15.6775828 83.5520043,16.8058524 81.6877996,19.0640681 C79.8260928,21.3231221 78.8952394,24.1429578 78.8952394,27.5269284 C78.8952394,30.8480311 79.791956,33.5287192 81.5870543,35.5639633 C83.3804875,37.5992075 85.7375948,38.618506 88.6583764,38.618506 C90.3752098,38.618506 91.9188612,38.1926807 93.2876653,37.3427064 C94.6564695,36.4935703 95.9561673,35.1498733 97.1875915,33.3132918 L95.9794803,32.0500657 C94.9745249,32.9235107 93.9795609,33.5697929 92.9912576,33.9897506 C92.0021218,34.4113848 91.0071577,34.6217828 90.0038676,34.6217828 C88.1021957,34.6217828 86.4594642,33.7382789 85.0773383,31.9695948 C83.6927147,30.2025871 83.0008192,28.1086662 83.0008192,25.6895087 C83.0008192,25.2460803 83.1073927,24.9627555 83.3197072,24.8395344 L83.3197072,24.8395344 Z M114.226872,34.7709893 C113.343477,36.0954068 112.058766,36.7567774 110.371074,36.7567774 C108.607614,36.7567774 107.151387,35.6980816 106.003223,33.5773371 C104.855059,31.4565926 104.280561,28.7063306 104.280561,25.32236 C104.280561,22.8579376 104.726006,20.9559734 105.616061,19.6164676 C106.505284,18.2761235 107.762519,17.6072089 109.390264,17.6072089 C111.214503,17.6072089 112.698207,18.6441104 113.838045,20.7179135 C114.978715,22.7925549 115.548217,25.536111 115.548217,28.9502581 C115.548217,31.5068869 115.106936,33.44741 114.226872,34.7709893 L114.226872,34.7709893 Z M109.937286,15.7689509 C106.942402,15.7689509 104.475391,16.8452497 102.536252,18.9961708 C100.597113,21.1470919 99.6279594,23.8981921 99.6279594,27.2511478 C99.6279594,30.4808824 100.616263,33.1758206 102.593702,35.3342859 C104.570308,37.4919129 107.017337,38.5724029 109.937286,38.5724029 C112.933835,38.5724029 115.396683,37.5036482 117.327496,35.3686537 C119.259142,33.2328209 120.224132,30.511059 120.224132,27.2050447 C120.224132,23.9292069 119.243322,21.2049304 117.281703,19.0305386 C115.320916,16.856985 112.872222,15.7689509 109.937286,15.7689509 L109.937286,15.7689509 Z M144.265628,31.9134328 L144.265628,23.1630565 C144.265628,20.5770894 143.800201,18.6902136 142.873511,17.5032672 C141.946821,16.3163209 140.479769,15.723686 138.471524,15.723686 C137.300047,15.723686 136.103592,15.9793488 134.878829,16.4923511 C133.654898,17.0070298 132.426805,17.7664743 131.19538,18.7782286 L131.19538,15.723686 L130.010582,15.723686 L123.760209,17.7899449 L123.760209,19.0758035 L126.88498,20.568707 L126.88498,31.9134328 C126.88498,33.4423806 126.637696,34.5077823 126.143128,35.1054466 C125.647727,35.7005963 124.7635,36.0308624 123.48545,36.0912156 L123.48545,38.1591511 L134.45753,38.1591511 L134.45753,36.0912156 C133.194467,35.9998476 132.33605,35.682155 131.880615,35.1398144 C131.423514,34.5949591 131.19538,33.5194986 131.19538,31.9134328 L131.19538,20.9366939 C132.290257,20.2468233 133.290217,19.7388505 134.194427,19.4094226 C135.100302,19.0799947 135.977036,18.9156998 136.828792,18.9156998 C138.016088,18.9156998 138.835372,19.1948334 139.292473,19.7539388 C139.749574,20.3122059 139.976875,21.4178431 139.976875,23.0716885 L139.976875,31.9134328 C139.976875,33.5194986 139.744578,34.5949591 139.280816,35.1398144 C138.817888,35.682155 137.961969,35.9998476 136.714725,36.0912156 L136.69391,38.1591511 L147.20889,38.1591511 L147.20889,36.0912156 C146.081542,35.9998476 145.309716,35.6871845 144.893413,35.1498733 C144.47378,34.6150769 144.265628,33.5345869 144.265628,31.9134328 L144.265628,31.9134328 Z M185.010864,6.99761864 C182.799463,5.57428893 179.374955,4.86178583 174.736507,4.86178583 L162.171651,4.86178583 L162.171651,6.79057362 C163.888485,6.79057362 165.062459,7.13508982 165.693574,7.82496047 C166.324689,8.51315464 166.640247,9.95241089 166.640247,12.1410528 L166.640247,30.8790459 C166.640247,32.8539369 166.33135,34.1632661 165.71772,34.8053571 C165.101591,35.4491246 163.888485,35.8774647 162.078399,36.0912156 L162.078399,38.1591511 L176.561579,38.1591511 L176.561579,36.0912156 C174.722353,35.8774647 173.489263,35.4449334 172.866474,34.79446 C172.24202,34.1448248 171.931458,32.8388486 171.931458,30.8790459 L171.931458,8.90461222 C171.931458,8.01607895 172.122124,7.46451773 172.502625,7.24992856 C172.881461,7.03617763 173.733217,6.92888305 175.055395,6.92888305 C177.413335,6.92888305 179.257557,7.52151797 180.588062,8.70762607 C181.917733,9.8945724 182.582985,11.5299766 182.582985,13.6104856 C182.582985,15.6775828 181.95187,17.3624431 180.690472,18.6625517 C179.426576,19.9643367 177.802162,20.6139719 175.808071,20.6139719 C175.717317,20.6139719 175.577439,20.6081042 175.38927,20.5921777 C175.196938,20.5770894 175.055395,20.568707 174.964641,20.568707 C174.509206,20.568707 174.208635,20.642472 174.065427,20.7866491 C173.920553,20.9316645 173.847284,21.1890038 173.847284,21.5561525 C173.847284,22.1085519 174.037951,22.4782153 174.419284,22.6710103 C174.797287,22.8612905 175.634056,22.9568497 176.927093,22.9568497 C180.286658,22.9568497 183.028429,22.0775371 185.149077,20.3163971 C187.271389,18.5560953 188.331297,16.3213503 188.331297,13.6104856 C188.331297,10.6255168 187.223931,8.42178659 185.010864,6.99761864 L185.010864,6.99761864 Z M31.721453,19.4421139 C31.6914792,12.7077023 26.2012758,7.25663447 19.4346874,7.25663447 C12.6689317,7.25663447 7.18289129,12.7077023 7.15041966,19.4421139 L5.36198214,19.4421139 C5.36198214,11.7169039 11.692285,5.4510678 19.4996307,5.4510678 C27.3103069,5.4510678 33.6439401,11.7169039 33.6439401,19.4421139 L31.721453,19.4421139 Z M27.4160478,19.4085843 C27.390237,14.9072412 23.7442557,11.2625783 19.2506815,11.2625783 C14.7546095,11.2625783 11.1102934,14.9072412 11.08365,19.4085843 L9.28355603,19.4085843 C9.28355603,13.8669867 13.7429934,9.37486426 19.2506815,9.37486426 C24.7558719,9.37486426 29.2144766,13.8669867 29.2144766,19.4085843 L27.4160478,19.4085843 Z M19.7510777,32.4725381 C24.2479823,32.4725381 27.8922984,28.8329047 27.9197744,24.3290469 L29.7190358,24.3290469 C29.7190358,29.872321 25.2595985,34.3619287 19.7510777,34.3619287 C14.2500504,34.3619287 9.78728262,29.872321 9.78728262,24.3290469 L11.5832136,24.3290469 C11.6123548,28.8329047 15.2575035,32.4725381 19.7510777,32.4725381 L19.7510777,32.4725381 Z M23.4320285,19.3876284 C23.4320285,19.375893 23.4370241,19.3666724 23.4370241,19.3566135 C23.4370241,17.1486922 21.6402605,15.3548608 19.4238636,15.3548608 C17.206634,15.3548608 15.4115356,17.1486922 15.4115356,19.3566135 C15.4115356,19.3666724 15.4115356,19.375893 15.414866,19.3876284 L13.5889613,19.3876284 C13.5889613,16.1461584 16.2041765,13.5174411 19.4238636,13.5174411 C22.6435507,13.5174411 25.2554354,16.1461584 25.2554354,19.3876284 L23.4320285,19.3876284 Z M21.372994,24.3139586 C21.372994,25.2427273 20.5661989,25.9912747 19.5662392,25.9912747 C18.5679447,25.9912747 17.7561539,25.2427273 17.7561539,24.3139586 L21.372994,24.3139586 Z M17.6279326,19.4219962 C17.6279326,18.4957421 18.4397234,17.7463565 19.4346874,17.7463565 C20.4346471,17.7463565 21.2464379,18.4957421 21.2464379,19.4219962 L17.6279326,19.4219962 Z M19.6644867,28.3819321 C21.8808836,28.3819321 23.6818102,26.5889391 23.6818102,24.378503 C23.6818102,24.3726353 23.6776472,24.3609 23.6776472,24.3516793 L25.499389,24.3516793 C25.499389,27.5965023 22.8883368,30.2201901 19.6644867,30.2201901 C16.443967,30.2201901 13.8329148,27.5965023 13.8329148,24.3516793 L15.6554892,24.3516793 C15.6554892,24.3609 15.6521587,24.3726353 15.6521587,24.378503 C15.6521587,26.5889391 17.4505875,28.3819321 19.6644867,28.3819321 L19.6644867,28.3819321 Z M19.4996307,38.3561372 C11.692285,38.3561372 5.36198214,32.0928159 5.36198214,24.3659294 L7.28113879,24.3659294 C7.3111126,31.100341 12.7996508,36.5522471 19.5662392,36.5522471 C26.3336601,36.5522471 31.823031,31.100341 31.8521722,24.3659294 L33.6439401,24.3659294 C33.6439401,32.0928159 27.3103069,38.3561372 19.4996307,38.3561372 L19.4996307,38.3561372 Z M19.4771503,0 C8.94884845,0 0.327214127,8.33544798 0.0074934533,19.1185537 L0.0074934533,19.0749652 L0,24.3759883 C0.226468811,35.2571679 8.94551803,44 19.5329349,44 C30.1886255,44 38.8219163,35.1104761 38.9501376,24.1513402 L38.9501376,19.3381723 C38.6237561,8.55590482 29.9962936,0 19.4771503,0 L19.4771503,0 Z M247.975022,36.0912156 C246.74443,35.9998476 245.900168,35.6871845 245.443067,35.1498733 C244.987632,34.6150769 244.76033,33.5345869 244.76033,31.9134328 L244.76033,4.19622411 L243.59718,4.19622411 L237.302679,6.21721819 L237.302679,7.50307672 L240.426617,8.99598026 L240.426617,31.9134328 C240.426617,33.4423806 240.177667,34.5077823 239.684765,35.1054466 C239.190197,35.7005963 238.297643,36.0308624 237.004606,36.0912156 L237.004606,38.1591511 L248,38.1591511 L247.975022,36.0912156 Z M234.336104,37.4005449 L234.336104,35.5865958 C234.228698,35.5865958 234.115464,35.590787 233.993071,35.5974929 C233.87151,35.6058753 233.690835,35.6092282 233.446881,35.6092282 C232.534345,35.6092282 231.909891,35.3988303 231.576848,34.9780343 C231.242141,34.5572384 231.073954,33.657808 231.073954,32.2797432 L231.073954,15.723686 L223.503069,16.1604085 L223.503069,17.6524738 C224.856053,17.7136652 225.756933,17.9659751 226.205707,18.41108 C226.652817,18.8553466 226.876788,19.8268656 226.876788,21.326475 L226.876788,33.0383494 C226.115786,33.7265436 225.288176,34.2512812 224.392292,34.6108857 C223.494742,34.9696519 222.544739,35.1498733 221.541449,35.1498733 C220.355818,35.1498733 219.490741,34.8212836 218.951212,34.1632661 C218.409186,33.5052485 218.141086,32.4557734 218.141086,31.0173554 L218.141086,15.723686 L210.889921,16.1604085 L210.889921,17.74468 L211.367837,17.74468 C212.29536,17.74468 212.928973,17.9777105 213.27284,18.4446096 C213.615873,18.9115086 213.784892,19.8268656 213.784892,21.1890038 L213.784892,31.1087234 C213.784892,33.4977044 214.29528,35.3300947 215.315222,36.6084091 C216.331001,37.8867234 217.768912,38.5262997 219.623958,38.5262997 C220.596441,38.5262997 221.653851,38.2848869 222.795354,37.8020613 C223.935191,37.3209122 225.294837,36.5287764 226.876788,35.4264922 L226.876788,38.5262997 L234.336104,37.4005449 Z" id="Leon-Paul-Logo"></path>
                </g>
            </g>
        </g>
    </g>
</svg>