<?xml version="1.0" encoding="utf-8"?>
<!-- Generator: Adobe Illustrator 19.0.0, SVG Export Plug-In . SVG Version: 6.00 Build 0)  -->
<svg version="1.1" id="Layer_1" xmlns="http://www.w3.org/2000/svg" xmlns:xlink="http://www.w3.org/1999/xlink" x="0px" y="0px"
	 viewBox="0 0 653 130" style="enable-background:new 0 0 653 130;" xml:space="preserve">
<style type="text/css">
	.st0{opacity:0.7;}
	.st1{fill-rule:evenodd;clip-rule:evenodd;fill:url(#SVGID_1_);}
	.st2{fill-rule:evenodd;clip-rule:evenodd;fill:url(#SVGID_2_);}
	.st3{fill:#E95125;}
	.st4{fill:#FFFFFF;}
	.st5{fill:url(#SVGID_3_);}
	.st6{fill-rule:evenodd;clip-rule:evenodd;fill:url(#SVGID_4_);}
</style>
<g>
	<g>
		<g>
			<g>
				<g>
					<g>
						<g class="st0">
							<g>
								<g>
									<linearGradient id="SVGID_1_" gradientUnits="userSpaceOnUse" x1="458.1008" y1="68.845" x2="492.7289" y2="27.5769">
										<stop  offset="0" style="stop-color:#DFE0E0"/>
										<stop  offset="1.534036e-002" style="stop-color:#CFCFD0"/>
										<stop  offset="4.463035e-002" style="stop-color:#ABA9AC"/>
										<stop  offset="7.045130e-002" style="stop-color:#8C888E"/>
										<stop  offset="0.142" style="stop-color:#DFE0E0"/>
										<stop  offset="0.1626" style="stop-color:#D1D1D2"/>
										<stop  offset="0.202" style="stop-color:#AFADB0"/>
										<stop  offset="0.2185" style="stop-color:#A09DA2"/>
										<stop  offset="0.3585" style="stop-color:#DFE0E0"/>
										<stop  offset="0.6769" style="stop-color:#DFE0E0"/>
										<stop  offset="0.828" style="stop-color:#DFE0E0"/>
										<stop  offset="0.8744" style="stop-color:#D1D1D2"/>
										<stop  offset="0.9629" style="stop-color:#AFADB0"/>
										<stop  offset="1" style="stop-color:#A09DA2"/>
									</linearGradient>
									<path class="st1" d="M483.6,24c-2.9-0.4-1.8-0.4-4.6,0.2l-0.2,0.4c-0.9,0-2.1,0.2-2.9,1.1c-1.2,1.4-0.8,4.7-0.4,6.4
										c0.6,2.6,2.3,3.2,4.5,3.4c-0.4,1.1-0.2,0.7-1.5,1.8c-4.3-1.4-3.1,1-7.9-0.3l-4.2-1.6l-1.6-0.3l-0.4-0.5l-5.9-1.8l-1.3-1
										c-1.2,0.1-1.2-0.2-2.2,0.2l0.2-1.7c-0.8,0.6-1.5,1.7-1.7,2.3c-7.8-0.9-19.7-2.4-27.3-2.9l-14.4-0.5l0,0l-0.5,0l-0.1-0.2
										l-0.1,0l0,0.5l0.1,0l0.1-0.2l0.5,0l0,0c8.9,0.5,14.2,0.8,23,1.7l0,0l18.6,2.2c0.1,0.6,0.4,2.1,0.9,3l0.2-1.8l0.6,0
										c0.4,1.8,1.7,2,3.3,1.5l4.8,2.8l0.4-0.3c6.4,3.7,1.5,1.6,9,3.1c1.9,0.4,6,1.5,7.4,2.8l3.6,4.8l1.2,2.8
										c-2.4,0.8-3.5-0.6-8.6,0.2c-3.3,0.5-4.8,0.2-4.3,5.2c0.4,4.2,3.2,11.3,0.2,14.1c-0.8,0.7-3.3,1.9-4.4,2.4
										c-0.6,2.2,1,1.8,2.8,1.7c1.3-0.1,3.7-0.5,3.7-0.5c0.7,0,2.2,0.7,4.6-0.2c-0.4-5.5-1.9-1.4-1.2-11.9c0.2-3.1,0.5-2.7-1-5.9
										c4.6,1.6,5.8,2.4,11.2,2.7h2.4c0.6,0.1,0.7,0.7,2.4,0.5c2.2-0.2,0-0.7,3.7,0.6c1.5,0.5,8.9,3.1,9.7,3.5
										c1,0.5,2.5,1.7,4.2,2c0.3,0.1,2.3,0,3.1,0.3l3.4,1.8c0.3,0.1,4.4,1.1,5.5,1.5c0.9,0.4,1.5,1,3.2,1.6c0,0.8,0,0.9,0.2,1.7
										c2.7,0.9,1.7,1.3,2.4,1.9c0.8,0.8,3.2,1.3,4.2,1l0.8-0.5c0.1-0.9,0.2-0.9-0.9-2.3l-3.1-3.2l-1.1-0.3
										c-2.8-1.2-8.4-5.7-11-6.6l-2.4-0.6l-2.1-0.9l-1.8-0.3c-1.2-0.5-9.7-7.4-11.1-8.9c-0.6-0.6-3.8-4.6-4.3-5.5
										c-0.1-0.2-1.6-5.1-1.8-5.8l2.6,1.6c2.4,1.7,1.4,1.7,5.4,3c2.7,0.9,6.1,1.4,8.7,2.6l0.3-0.3c2.4,1.2,1.4,0.9,3.9,1.1
										c1.7,0.1,1.2,0.2,2.6-0.1l0.2-0.4c-1.6-1.2-0.7,0.1-4-2.4c0.6-0.2,0.8-0.2,1-0.8c-0.6-0.2-3.1-0.2-3.8-0.2
										c-0.6-0.8-2.7-1-3.7-1.4l-5-2.6c-2.8-1.1-0.3,0.6-4.2-3l-2.9-2.5c-1.2-1.3-1-2.6-4.5-2.7c-1.6-0.1-1.3-0.1-2.9,0.1
										c-1.7-1.5-1-1.8-0.6-4c0.2-1.5,0.2-2.1-0.7-3.5C485,24.5,484.6,24.4,483.6,24L483.6,24z"/>
								</g>
							</g>
						</g>
						
							<linearGradient id="SVGID_2_" gradientUnits="userSpaceOnUse" x1="1679.0465" y1="1189.5845" x2="1679.0465" y2="1124.3696" gradientTransform="matrix(0.8832 -0.469 0.74 1.3937 -1855.2992 -764.4189)">
							<stop  offset="0.1017" style="stop-color:#070609"/>
							<stop  offset="1" style="stop-color:#070609;stop-opacity:0"/>
						</linearGradient>
						<polygon class="st2" points="519.2,-1 406.6,43.3 468.1,81.3 556.9,80 						"/>
					</g>
					<g>
						<g>
							<g>
								<path class="st3" d="M157,46.5h-11.1v28.8h-9.7V46.5h-11.1v-8.3H157V46.5z"/>
								<path class="st3" d="M158,64c0.2,3.7,2.3,6.1,6,6.1c2.1,0,4.2-1,5-3h8.3c-1.6,6.2-7.4,8.9-13.4,8.9
									c-8.8,0-14.8-5.3-14.8-14.4c0-8.3,6.6-14.2,14.6-14.2c9.7,0,14.5,7.3,14.1,16.4H158z M169,59.1c-0.2-3-2.3-5.5-5.3-5.5
									c-3.1,0-5.2,2.2-5.7,5.5H169z"/>
								<path class="st3" d="M180.3,56.7c0.2-3.5,1.8-5.8,4.2-7.2c2.4-1.4,5.5-1.9,8.6-1.9c6.4,0,12.6,1.4,12.6,9v11.8
									c0,2.3,0,4.8,1,6.9h-8.9c-0.3-0.8-0.4-1.7-0.5-2.5c-2.3,2.4-5.7,3.3-8.9,3.3c-5.1,0-9.2-2.6-9.2-8.2c0-8.8,9.6-8.1,15.7-9.4
									c1.5-0.3,2.3-0.8,2.3-2.5c0-2-2.4-2.8-4.3-2.8c-2.4,0-4,1.1-4.4,3.4H180.3z M191.8,70.7c4.2,0,5.6-2.4,5.4-8
									c-1.2,0.8-3.5,0.9-5.5,1.5c-2,0.5-3.6,1.3-3.6,3.4C188.1,69.8,189.8,70.7,191.8,70.7z"/>
								<path class="st3" d="M207.9,48.4h8.6v3.7h0.1c1.6-2.7,4.5-4.5,7.7-4.5c3.4,0,6.4,1.1,7.9,4.4c2.1-2.9,4.8-4.4,8.4-4.4
									c8.6,0,9.5,6.5,9.5,11.7v16.1h-8.8V59.5c0-2.9-1.4-4.6-3.7-4.6c-3.8,0-4.2,2.9-4.2,7.3v13.2h-8.8V60c0-3.2-0.9-5.1-3.3-5.1
									c-3.2,0-4.5,1.8-4.5,7.3v13.2h-8.8V48.4z"/>
							</g>
						</g>
						<g>
							<path class="st4" d="M267.6,38.2h9.8l13.9,37.2h-10.1l-2.3-6.7h-13l-2.3,6.7h-9.9L267.6,38.2z M268.3,61.5h8.4l-4.1-13h-0.1
								L268.3,61.5z"/>
							<path class="st4" d="M291,38.2h8.8v13.1h0.1c1.8-2.5,4.4-3.7,7.7-3.7c7.6,0,11.4,6.7,11.4,13.7c0,7.6-3.6,14.9-12.1,14.9
								c-3.1,0-5.7-1.4-7.4-3.9h-0.1v3.1H291V38.2z M299.5,61.5c0,4.7,1.4,7.8,5.4,7.8c4,0,5.3-4.1,5.3-7.8c0-3.4-1.4-7.2-5.3-7.2
								C302.5,54.3,299.5,56,299.5,61.5z"/>
							<path class="st4" d="M327.8,66.4c0,1.4,0.6,2.3,1.5,3c0.8,0.6,2,0.9,3.3,0.9c1.7,0,4.2-0.7,4.2-2.9c0-2.1-2.8-2.5-4.3-2.9
								c-5.6-1.4-12.5-1.6-12.5-8.8c0-6.5,7-8.3,12.3-8.3c5.9,0,12.1,1.7,12.4,8.7h-8.2c0-1.1-0.4-1.9-1.1-2.3
								c-0.7-0.5-1.7-0.7-2.8-0.7c-1.5,0-3.8,0.2-3.8,2c0,2.5,5.9,3,10,3.9c5.5,1.1,6.9,5,6.9,7.3c0,7.2-6.9,9.6-13,9.6
								c-6.4,0-13-2.1-13.2-9.7H327.8z"/>
							<path class="st4" d="M360,47.5c8.4,0,14.3,6.2,14.3,14.3c0,8.1-5.9,14.3-14.3,14.3c-8.4,0-14.2-6.1-14.2-14.3
								C345.8,53.7,351.6,47.5,360,47.5z M360,69.3c4.1,0,5.4-4.1,5.4-7.5c0-3.4-1.3-7.5-5.4-7.5c-4.1,0-5.4,4.1-5.4,7.5
								C354.6,65.3,355.9,69.3,360,69.3z"/>
							<path class="st4" d="M376.4,38.2h8.8v37.2h-8.8V38.2z"/>
							<path class="st4" d="M415.5,75.3h-8.6v-3.7h-0.1c-1.7,2.8-5.1,4.5-8.2,4.5c-7.8,0-10-4.5-10-11.6V48.3h8.8V64
								c0,3.6,1.6,4.8,4.4,4.8c1.9,0,4.8-1.2,4.8-6V48.3h8.8V75.3z"/>
							<path class="st4" d="M434.9,54h-5.5v12.3c0,2.1,1.2,2.6,3.2,2.6c0.7,0,1.5-0.1,2.3-0.1v6.5c-1.6,0.1-3.2,0.3-4.8,0.3
								c-7.5,0-9.5-2.2-9.5-9.5V54h-4.5v-5.7h4.5v-8.2h8.8v8.2h5.5V54z"/>
							<path class="st4" d="M443.6,64c0.2,3.7,2.3,6.1,6,6.1c2.1,0,4.2-1,5-3h8.3c-1.6,6.2-7.4,9-13.4,9c-8.8,0-14.8-5.3-14.8-14.4
								c0-8.3,6.6-14.2,14.6-14.2c9.7,0,14.5,7.3,14.1,16.4H443.6z M454.6,59c-0.2-3-2.3-5.5-5.3-5.5c-3.1,0-5.2,2.2-5.7,5.5H454.6z
								"/>
						</g>
					</g>
				</g>
			</g>
			<linearGradient id="SVGID_3_" gradientUnits="userSpaceOnUse" x1="4.4454" y1="107.2325" x2="329.8961" y2="107.2325">
				<stop  offset="0" style="stop-color:#DFE0E0"/>
				<stop  offset="5.399134e-002" style="stop-color:#CFCFD0"/>
				<stop  offset="0.1571" style="stop-color:#ABA9AC"/>
				<stop  offset="0.248" style="stop-color:#8C888E"/>
				<stop  offset="0.5103" style="stop-color:#DFE0E0"/>
				<stop  offset="0.5662" style="stop-color:#CECDCE"/>
				<stop  offset="0.6735" style="stop-color:#A8A5A8"/>
				<stop  offset="0.7898" style="stop-color:#817C81"/>
				<stop  offset="1" style="stop-color:#DFE0E0"/>
			</linearGradient>
			<path class="st5" d="M4.4,94.6l0.1-0.7h19.8l-0.1,0.7h-9.5l-5.5,25.6H8.5l5.5-25.6H4.4z M24.7,93.9h0.8l-2.1,9.7l-0.5,2.1
				l0.1,0.1c1.7-3.1,4-5,7.7-5c3.2,0,5.6,1.8,5.6,5.2c0,1-0.3,2-0.4,3l-2.4,11.2h-0.8l2.4-11.4c0.2-0.9,0.4-1.9,0.4-2.8
				c0-2.9-2.1-4.4-4.8-4.4c-5.6,0-8,5.2-9,9.9l-1.9,8.7H19L24.7,93.9z M38.2,110.8c-0.1,0.6-0.1,1.2-0.1,2c0,5.9,3.9,7,6.3,7
				c4,0,6.7-1.9,7.8-5.9H53c-1.1,4.3-4,6.7-8.5,6.7c-4.8,0-7-3.4-7-7.8c0-5.9,3.3-12,9.9-12c4.5,0,6.8,3.2,6.8,7.4
				c0,0.9-0.1,1.7-0.1,2.7H38.2z M53.2,110.1c0.1-0.7,0.2-1.2,0.2-2c0-3.6-2-6.6-6.1-6.6c-5,0-8,3.9-8.9,8.6H53.2z M66.2,106.7
				c1-4.2,3.8-5.9,7.7-5.9c3.5,0,5.8,1.4,5.8,4.7c0,0.9-0.1,1.6-0.3,2.3l-2.2,9.2c-0.1,0.4-0.1,0.7-0.1,1.3c0,1,0.6,1.2,1.1,1.2
				c0.4,0,0.9,0,1.3-0.1v0.7c-0.5,0.1-0.9,0.1-1.3,0.1c-1.2,0-1.9-0.6-1.9-2c0-1,0.2-1.4,0.4-2.1h-0.1c-1.8,2.9-4.1,4.3-7.7,4.3
				c-2.9,0-5.6-1.3-5.6-4.7c0-5.1,4.1-6.1,8.2-6.1c3.9-0.2,7.4,0.5,7.4-4.3c0-3.1-2.1-4-5-4c-3.8,0-6.2,1.9-7,5.2H66.2z M78.3,109.5
				L78.3,109.5c-1.1,1-4.5,1-6.7,1c-3.6,0.2-7.5,0.8-7.5,5.4c0,2.7,2.2,3.9,4.9,3.9c4.7,0,7.5-3,8.5-7.1L78.3,109.5z M84.2,105.8
				L84.2,105.8c1.5-2.8,4.3-5,7.9-5c4.4,0,6.6,3.4,6.6,7.3c0,5.9-3.2,12.5-9.8,12.5c-3.7,0-6.2-2.4-6.5-5.9h-0.1l-1.2,5.5h-0.8
				L86,93.9h0.8L84.2,105.8z M92.1,101.5c-5.9,0-9.2,6.3-9.2,11.3c-0.1,4.2,2.1,7,6,7c6.1,0,9.1-6.5,9.1-11.8
				C98,104.3,95.9,101.5,92.1,101.5z M114.1,106.9c0.5-3.8-1.8-5.4-5.5-5.4c-2.5,0-5.7,1.1-5.7,4.3c0,2.6,2.2,3.3,4.4,4.1
				c2.6,1,6.1,1.7,6.1,5.2c0,4-3.4,5.4-7,5.4c-3.8,0-6.9-1.3-6.9-5.5c0-0.5,0.1-0.9,0.1-1.4h0.8c-0.6,4.5,1.9,6.1,6,6.1
				c3,0,6.2-1.2,6.2-4.7c0-2.7-2.4-3.4-4.6-4.2c-2.6-1-5.9-1.7-5.9-5.2c0-3.5,3.2-5,6.4-5c3.9,0,6.7,1.6,6.3,6.1H114.1z
				 M125.9,100.8c4.6,0,7.3,3.2,7.3,7.8c0,5.6-3.5,12-9.9,12c-4.6,0-7.3-2.9-7.3-7.5C116,106.9,119.5,100.8,125.9,100.8z
				 M123.3,119.9c6,0,9.2-6.2,9.2-11.3c0-4.4-2.6-7-6.6-7c-6.1,0-9.1,6.1-9.1,11.6C116.8,117.2,119,119.9,123.3,119.9z M133.2,120.2
				l5.5-26.3h0.8l-5.5,26.3H133.2z M151.4,120.2h-0.8l0.5-2.4l0.5-2.1l-0.1-0.1c-1.7,3.1-4,5-7.7,5c-3.2,0-5.6-1.8-5.6-5.2
				c0-1,0.3-2,0.4-3l2.4-11.2h0.8l-2.4,11.4c-0.2,0.9-0.4,1.9-0.4,2.8c0,2.9,2.1,4.4,4.8,4.4c5.6,0,8-5.2,9-9.9l1.8-8.7h0.8
				L151.4,120.2z M161.1,95.3h0.8l-1.3,6h4.1l-0.1,0.7h-4.1l-2.9,13.8c-0.1,0.7-0.3,1.4-0.4,2.2c0,1.7,1.4,1.6,2.5,1.6
				c0.7,0,1.3,0,1.8-0.1l-0.1,0.7c-0.7,0.1-1.4,0.1-2,0.1c-1.4,0-2.9-0.4-2.9-2.1c0-0.7,0.2-1.4,0.3-2.2l3-14h-3.6l0.1-0.7h3.6
				L161.1,95.3z M164.3,110.8c-0.1,0.6-0.1,1.2-0.1,2c0,5.9,3.9,7,6.3,7c4,0,6.7-1.9,7.8-5.9h0.8c-1.1,4.3-4,6.7-8.5,6.7
				c-4.8,0-7-3.4-7-7.8c0-5.9,3.3-12,9.9-12c4.5,0,6.8,3.2,6.8,7.4c0,0.9-0.1,1.7-0.1,2.7H164.3z M179.3,110.1
				c0.1-0.7,0.2-1.2,0.2-2c0-3.6-2-6.6-6.1-6.6c-5,0-8,3.9-8.9,8.6H179.3z M193.5,105.8L193.5,105.8c1.5-2.8,4.3-5,7.9-5
				c4.4,0,6.6,3.4,6.6,7.3c0,5.9-3.2,12.5-9.8,12.5c-3.7,0-6.2-2.4-6.5-5.9h-0.1l-1.2,5.5h-0.8l5.6-26.3h0.8L193.5,105.8z
				 M201.4,101.5c-5.9,0-9.2,6.3-9.2,11.3c-0.1,4.2,2.1,7,6,7c6.1,0,9.1-6.5,9.1-11.8C207.3,104.3,205.2,101.5,201.4,101.5z
				 M210,110.8c-0.1,0.6-0.1,1.2-0.1,2c0,5.9,3.9,7,6.3,7c4,0,6.7-1.9,7.8-5.9h0.8c-1.1,4.3-4,6.7-8.5,6.7c-4.8,0-7-3.4-7-7.8
				c0-5.9,3.3-12,9.9-12c4.5,0,6.8,3.2,6.8,7.4c0,0.9-0.1,1.7-0.1,2.7H210z M225,110.1c0.1-0.7,0.2-1.2,0.2-2c0-3.6-2-6.6-6.1-6.6
				c-5,0-8,3.9-8.9,8.6H225z M240.9,106.9c0.5-3.8-1.8-5.4-5.5-5.4c-2.5,0-5.7,1.1-5.7,4.3c0,2.6,2.2,3.3,4.4,4.1
				c2.6,1,6.1,1.7,6.1,5.2c0,4-3.4,5.4-7,5.4c-3.8,0-6.9-1.3-6.9-5.5c0-0.5,0.1-0.9,0.1-1.4h0.8c-0.6,4.5,1.9,6.1,6,6.1
				c3,0,6.2-1.2,6.2-4.7c0-2.7-2.4-3.4-4.6-4.2c-2.6-1-5.9-1.7-5.9-5.2c0-3.5,3.2-5,6.4-5c3.9,0,6.7,1.6,6.3,6.1H240.9z M248.4,95.3
				h0.8l-1.3,6h4.1l-0.1,0.7h-4.1l-2.9,13.8c-0.1,0.7-0.3,1.4-0.4,2.2c0,1.7,1.4,1.6,2.5,1.6c0.7,0,1.3,0,1.8-0.1l-0.1,0.7
				c-0.7,0.1-1.4,0.1-2,0.1c-1.4,0-2.9-0.4-2.9-2.1c0-0.7,0.2-1.4,0.3-2.2l3-14h-3.6l0.1-0.7h3.6L248.4,95.3z M276.4,120.2h-1.1
				l-2.1-18.2h-0.1l-9.6,18.2h-1.1l-2.2-18.9h0.8l2,18.2h0.1l9.6-18.2h1.1l2.1,18.2h0.1l9.6-18.2h0.8L276.4,120.2z M285.2,110.8
				c-0.1,0.6-0.1,1.2-0.1,2c0,5.9,3.9,7,6.3,7c4,0,6.7-1.9,7.8-5.9h0.8c-1.1,4.3-4,6.7-8.5,6.7c-4.8,0-7-3.4-7-7.8
				c0-5.9,3.3-12,9.9-12c4.5,0,6.8,3.2,6.8,7.4c0,0.9-0.1,1.7-0.1,2.7H285.2z M300.2,110.1c0.1-0.7,0.2-1.2,0.2-2
				c0-3.6-2-6.6-6.1-6.6c-5,0-8,3.9-8.9,8.6H300.2z M303.9,106.7c1-4.2,3.8-5.9,7.7-5.9c3.5,0,5.8,1.4,5.8,4.7
				c0,0.9-0.1,1.6-0.3,2.3l-2.2,9.2c-0.1,0.4-0.1,0.7-0.1,1.3c0,1,0.6,1.2,1.1,1.2c0.4,0,0.9,0,1.3-0.1v0.7
				c-0.5,0.1-0.9,0.1-1.3,0.1c-1.2,0-1.9-0.6-1.9-2c0-1,0.2-1.4,0.4-2.1h-0.1c-1.8,2.9-4.1,4.3-7.7,4.3c-2.9,0-5.6-1.3-5.6-4.7
				c0-5.1,4.1-6.1,8.2-6.1c3.9-0.2,7.4,0.5,7.4-4.3c0-3.1-2.1-4-5-4c-3.8,0-6.2,1.9-7,5.2H303.9z M315.9,109.5L315.9,109.5
				c-1.1,1-4.5,1-6.7,1c-3.6,0.2-7.5,0.8-7.5,5.4c0,2.7,2.2,3.9,4.9,3.9c4.7,0,7.5-3,8.5-7.1L315.9,109.5z M317.7,120.2l4-18.9h0.8
				l-0.5,2.4l-0.6,2.3l0.1,0.1c1.5-3,3.8-5.1,6.9-5.1c0.6,0,1,0,1.5,0.1l-0.1,0.7c-0.3-0.1-0.8-0.1-1.3-0.1c-3.5,0-5.9,3.6-6.7,5.2
				c-0.5,1-0.9,2.2-1.3,3.8l-2,9.5H317.7z"/>
		</g>
		
			<linearGradient id="SVGID_4_" gradientUnits="userSpaceOnUse" x1="630.0212" y1="184.9699" x2="661.9548" y2="184.9699" gradientTransform="matrix(1.2824 0.1108 -8.609311e-002 0.9963 -383.7959 -225.6662)">
			<stop  offset="0" style="stop-color:#010101"/>
			<stop  offset="1" style="stop-color:#010101;stop-opacity:0"/>
		</linearGradient>
		<polygon class="st6" points="448.8,35.4 407.9,31.8 408.5,25 449.4,28.6 		"/>
	</g>
	<g id="XMLID_31_">
		<g id="XMLID_1722_">
			<path id="XMLID_1912_" class="st4" d="M378.6,94.1c0.2,0.1,0.3,0.2,0.3,0.3c-0.1,0-0.1,0.1-0.1,0.1c0.4,0,0.7,0.2,0.9,0.5
				c0.1,0,0.2,0.1,0.2,0.2l-0.4,0.3h0.1l0.1-0.1c0.3,0.1,0.4,0.2,0.4,0.4c-0.1,0.1-0.6,0.3-1.3,0.4c-0.1,0-0.2-0.1-0.2-0.1v0.4
				c0.1-0.1,0.4-0.2,0.7-0.4c0.3,0,0.4,0.1,0.4,0.2c-0.1,0.2-0.5,0.3-1.1,0.4c0,0.1-0.4,0.2-1.3,0.4h-0.5c0,0.1-0.1,0.2-0.4,0.3h0.2
				v0.1l-0.4,0.1v0.1h0.5v0.1c-0.9,0.2-1.3,0.4-1.4,0.4v0.1h0.1l0.4-0.1l0.1,0.1v0.1c-1.1,0.2-2.7,0.6-4.9,1.1
				c-1.3,0.4-2.9,0.8-4.9,1.2l-0.1-0.1c0.3-0.1,0.9-0.3,1.6-0.4v-0.1h-0.2c-1.3,0.3-2,0.5-2,0.6c0,0.1,0.1,0.2,0.1,0.2
				c-0.2,0-0.5,0.4-0.8,1.3c-0.9,2.2-3.6,6-8.2,11.5c-2.3,2.7-5.3,6.7-9.2,12.2c-0.4,0.7-0.9,1.5-1.4,2.4l-0.3-0.2h-0.1l-0.2,0.1
				c-0.1-0.2-0.1-0.4-0.1-0.6c0,0,0.1,0,0.1-0.1c-0.2,0-0.4-0.2-0.4-0.6c0.1,0,0.1,0,0.1-0.1h-0.1l-0.2,0.1
				c-0.1-0.2-0.1-0.4-0.1-0.8c0,0,0.1,0,0.1-0.1l-0.1-0.1v0.3h-0.3c-0.1,0-0.1,0-0.1-0.1v-0.1l0.1-0.5c-0.1,0-0.1-0.1-0.1-0.2
				c0.1-0.6,0.5-1.2,1-1.9c0.2-0.5,0.6-0.8,1-1l0.1-0.2v-0.1h-0.1c0-0.2,0.4-0.8,1.3-2l0.3-0.3v-0.1l-0.1-0.1l0.3-0.1l-0.1-0.1v-0.1
				c0.5-0.7,0.9-1.1,1.1-1.1l0.1-0.1c0-0.1-0.1-0.2-0.1-0.2c0.2,0,0.5-0.2,0.8-0.7c0-0.1-0.1-0.2-0.1-0.3h0.1l0.1,0.1
				c0-0.1,0.4-0.6,1.3-1.6l1.8-2.5l-0.1-0.1c0.8-1.1,1.7-2.1,2.5-3c0.1,0,0.7-0.5,1.5-1.5l0.4-0.1v-0.1l-0.1-0.2
				c0.6-0.7,0.9-1.1,0.9-1.1c0.1,0,0.2,0.1,0.2,0.1c0-0.2,0.4-0.7,1.1-1.5l-0.1-0.1c0.2-0.4,0.5-0.7,0.8-0.9c0-0.1-0.1-0.2-0.1-0.2
				c0.1,0,0.3-0.3,0.8-0.8l0.1,0.1c0,0-0.2,0.2-0.5,0.6h0.1c0.2,0,0.6-0.6,1.2-1.7v-0.1c-0.1,0-0.2-0.1-0.2-0.2h-0.1
				c-0.1,0.1-0.6,0.2-1.5,0.4c-2.6,0.8-5.4,1.6-8.3,2.3c-1,0.4-2.3,0.8-4,1.2c-0.1-0.2-0.1-0.3-0.2-0.3l-0.4,0.1c0,0,0-0.1-0.1-0.1
				l0.1-0.4c-0.2-0.4-0.4-0.6-0.5-0.6l-0.2-0.2v-0.3c-0.2,0-0.5-0.4-0.9-1.2c-0.1,0-0.1,0-0.1-0.1c0.2-0.2,1.2-0.5,2.9-0.9
				c2.6-0.9,7.3-2.2,14-3.8C372,95.4,377.5,94.1,378.6,94.1z M358.4,106.7L358.4,106.7c0.1,0,0.2-0.1,0.4-0.3v-0.1
				C358.6,106.4,358.5,106.5,358.4,106.7z M358.9,106.1L358.9,106.1c0.1,0,0.2,0,0.2,0V106H359C358.9,106,358.9,106,358.9,106.1z
				 M368,100.2L368,100.2l0.1,0.1c0.2-0.1,0.3-0.1,0.4-0.1V100h-0.1C368.2,100.1,368.1,100.2,368,100.2z M369.6,99.7l-0.1,0.1h0.2
				C369.8,99.7,369.7,99.7,369.6,99.7z M371.2,99.3L371.2,99.3l0.2,0.1c0.1-0.1,0.2-0.1,0.3-0.1v-0.1h-0.1L371.2,99.3z M372,99.1
				L372,99.1l0.2,0.1c0.2-0.1,0.4-0.1,0.5-0.1V99h-0.2C372.4,99.1,372.2,99.1,372,99.1z M372.8,98.9L372.8,98.9l0.3,0.1v-0.1H372.8z
				 M373.3,98.8L373.3,98.8l0.1,0.1l1.9-0.4v-0.1h-0.2C374.1,98.6,373.5,98.8,373.3,98.8z M375.9,97.1v0.1h0.1c0.1,0,0.1,0,0.1-0.1
				H375.9z M376.2,97.1L376.2,97.1L376.2,97.1c0.3,0,0.5,0,0.7,0V97c0-0.1-0.1-0.1-0.2-0.2h-0.1C376.4,97,376.3,97.1,376.2,97.1z
				 M376.8,96.7L376.8,96.7c0,0.1,0.1,0.2,0.4,0.4c0.1,0,0.2-0.1,0.2-0.1l-0.1-0.2h0.1l0.5,0.1c0.1,0,0.2-0.1,0.2-0.1v-0.1h-0.2
				v-0.1c0-0.1,0.1-0.1,0.4-0.1v-0.1C377.8,96.4,377.3,96.5,376.8,96.7z M376.9,97.4h0.2v0.1H377C377,97.5,376.9,97.5,376.9,97.4z
				 M378.2,96.6v0.1h0.4v-0.1H378.2z"/>
			<path id="XMLID_1891_" class="st4" d="M381.6,98.3c0.8,0.2,1.2,0.5,1.2,0.9c0.7,1.2,1,2,1,2.5c-0.1,0.6-0.1,0.9-0.1,1.1
				c0.1,0,0.2-0.1,0.5-0.2c0.1,0.1,0.2,0.1,0.3,0.1c0-0.1,0.2-0.1,0.6-0.1v0.1l0.3-0.1v0.1c0,0,0.1,0,0.1-0.1l0.4,0.1h0.1v0.1
				l-0.2,0.3c0,0.1,0,0.1,0,0.2c-0.6,0.4-1.6,0.9-2.8,1.4l-0.1,0.1v0.1c1.7-0.8,2.7-1.3,3.2-1.5l0.1,0.1c-0.2,0.5-1.2,1.1-2.8,1.7
				v0.1c0,0.1,0,0.1,0,0.2h-0.1l-0.2-0.1h-0.1l0.1,0.1c0,0.1-0.1,0.2-0.1,0.2h-0.1l-0.3-0.1c0,0.1-0.1,0.2-0.2,0.3
				c0,0,0.1,0,0.2,0.1c0.1,0,0.1-0.1,0.2-0.1c0,0,0,0.1,0.1,0.1l0.5-0.4l0.1,0.1c0.2-0.1,0.3-0.2,0.4-0.2v0.1
				c-0.1,0.1-0.4,0.3-1.2,0.7c0,0.1,0.1,0.1,0.2,0.1v0.1c-0.7,0.2-1.1,0.6-1.1,0.9l-0.1,0.2c0,0.1,0.1,0.1,0.1,0.2
				c-0.1,0.1-0.8,1.1-2,3.2c-1.3,2-2.3,3.8-3.2,5.5c-0.3,0.6-0.7,1-1,1.1c-0.6,1.3-1.1,1.9-1.5,2v0.1c0.1,0,0.1,0,0.1,0.1
				c0,0.1-0.3,0.4-0.8,1c-0.4-0.5-0.7-0.8-0.9-0.8H372l0-0.3l-0.5-0.5c-0.1,0-0.2-0.1-0.2-0.3c0.2-0.6,1.3-2.4,3.3-5.5
				c0-0.2,0.5-1,1.5-2.5l0.3-0.5v-0.1l-1.6,0.7c0,0,0-0.1-0.1-0.1c-0.1,0.2-1.7,1-5.1,2.5c-0.2,0.1-0.6,0.3-1.1,0.6
				c-1.1,1.8-1.8,3-2.2,3.6c-0.5,0.8-0.8,1.3-0.9,1.3v-0.1c0.1-0.2,0.2-0.3,0.2-0.4h-0.1c-0.3,0.6-0.6,1.2-1,1.7l0,0.1v0.1h0
				l-0.1-0.1c-0.3,0.4-0.8,0.9-1.6,1.5h-0.1c-0.1-0.1-0.3-0.3-0.5-0.3l0.1-0.1c0-0.1-0.2-0.2-0.6-0.5l-0.4,0.1c-0.1,0-0.1,0-0.1-0.1
				v-0.1l0.1-0.2c-0.3-0.1-0.4-0.2-0.4-0.3v-0.2c-0.1,0-0.1,0-0.1-0.1c0.3-0.3,0.9-1.2,1.9-2.7v-0.1c-2.1,1.1-3.4,1.6-3.8,1.7
				c-0.1-0.1-0.2-0.2-0.4-0.2c-0.2-0.2-0.4-0.4-0.6-0.8c-0.4-0.4-0.6-0.6-0.6-0.6c-0.1,0-0.2,0-0.2-0.1l0.1-0.1
				c-0.2-0.2-0.3-0.3-0.4-0.5v-0.3c0.4-0.2,1.2-0.6,2.3-1.1c1.1-0.6,1.8-0.9,1.9-0.9c1.1-0.7,2.8-1.6,5.1-2.7c0.3,0,0.8-0.6,1.4-1.9
				c1.9-3.2,3-5,3.4-5.5h0.1v0.1l-0.3,0.5v0.1c0.3-0.4,0.9-1.5,1.7-3.1c0.2-0.1,0.4-0.6,0.7-1.4l0.1-0.1c0.7,0,1.4,0.9,2,2.6v0.1
				c-1.3,2.5-2.3,4.2-2.8,5.1c-0.2,0.3-0.2,0.4-0.2,0.5h0.1c0.2-0.2,0.9-0.5,2-0.9c3.6-1.8,5.5-2.7,5.5-2.7c0.1-0.1,0.3-0.5,0.6-1.2
				c0.1,0,0.2-0.2,0.4-0.5h0.1l-0.1-0.3l0.1-0.1c0,0,0,0.1,0.1,0.1c0-0.1,0.2-0.4,0.5-1.1c0.2-0.4,0.3-0.9,0.4-1.4
				c-0.1,0-0.1,0-0.1-0.1v-0.1c0.1-0.1,0.1-0.3,0.2-0.7L381.6,98.3C381.6,98.3,381.6,98.3,381.6,98.3z M365.6,118.1L365.6,118.1
				c0.1,0.1,0.1,0,0.2-0.1v-0.1C365.7,117.9,365.7,118,365.6,118.1z M367.6,109.2c0.1,0,0.1-0.1,0.2-0.3v-0.1
				C367.7,108.9,367.6,109.1,367.6,109.2z M368.8,113.4L368.8,113.4c0.1,0,0.2,0,0.2-0.1h0C368.8,113.3,368.8,113.3,368.8,113.4z
				 M369.4,113L369.4,113L369.4,113c0.8-0.2,1.2-0.4,1.2-0.5h-0.1C369.8,112.8,369.5,113,369.4,113z M370.3,104.6L370.3,104.6
				c0.1,0.1,0.1,0,0.1-0.1v-0.1C370.4,104.5,370.3,104.5,370.3,104.6z M371.6,102.1l0.1,0.1c0,0-0.1,0.1-0.4,0.4h-0.1v-0.1
				C371.4,102.3,371.5,102.1,371.6,102.1z M372.3,111.6L372.3,111.6L372.3,111.6c0.1,0,0.2,0,0.3,0v-0.1h-0.1
				C372.4,111.6,372.3,111.6,372.3,111.6z M372.7,111.4v0.1c0.1-0.1,0.2-0.1,0.3-0.1v-0.1h-0.1C372.8,111.4,372.7,111.4,372.7,111.4
				z M373,111.4L373,111.4c0.1,0,0.2,0,0.2-0.1h0C373.1,111.3,373,111.3,373,111.4z M373.3,111.2L373.3,111.2l0.1,0.1
				c0.1,0,0.1-0.1,0.2-0.1v-0.1h-0.1C373.4,111.2,373.3,111.2,373.3,111.2z M373.9,111h0.1c0.1,0,0.1,0,0.1-0.1H374
				C373.9,110.9,373.9,110.9,373.9,111z M374.2,110.8L374.2,110.8c0.4-0.1,0.7-0.3,0.8-0.4h-0.1
				C374.4,110.6,374.2,110.8,374.2,110.8z M375,110.4L375,110.4l0.1,0.1c0.5-0.3,0.8-0.4,0.9-0.4V110h-0.2
				C375.4,110.3,375.1,110.4,375,110.4z M375.4,108.2L375.4,108.2c0.2-0.1,0.4-0.2,0.7-0.3v-0.1C375.7,108,375.4,108.1,375.4,108.2z
				 M376.3,109.8L376.3,109.8c0.2-0.1,0.3-0.1,0.3-0.2h0C376.4,109.7,376.3,109.8,376.3,109.8z M376.9,107.4L376.9,107.4l0.3,0.1
				c0.4-0.3,0.7-0.4,0.8-0.4V107h-0.2C377.6,107.1,377.3,107.3,376.9,107.4z M382.2,106.4L382.2,106.4L382.2,106.4
				c0.1,0,0.2,0,0.2,0v-0.1h-0.1C382.2,106.3,382.2,106.3,382.2,106.4z M383.9,105c0,0.1-0.2,0.2-0.5,0.3v-0.1
				C383.7,105,383.9,105,383.9,105z M384,104.8h0.1v0.1h-0.2C383.9,104.9,384,104.8,384,104.8z"/>
			<path id="XMLID_1883_" class="st4" d="M405.8,98.6c0,0,0.1,0.1,0.3,0.2V99c-0.1,0.1-0.6,0.4-1.4,0.7l-0.1,0
				c-0.4,0.3-1,0.6-1.7,0.8c0,0,0,0-0.1,0c-0.2,0-0.8,0.2-1.9,0.7c-0.1,0-0.5,0.2-1.2,0.5c-0.5,0.2-0.9,0.4-1.1,0.4
				c-0.9,0.4-2,0.9-3.3,1.4l0,0.1v0.1c0,0.1-0.1,0.2-0.3,0.2h0l-0.1,0c0,0,0,0.1,0,0.1l-0.1,0h-0.1l0,0.1v0c-0.2,0-0.7,0.2-1.8,0.7
				l-2.4,0.9c-0.3,1.2-0.9,2.8-1.6,4.8h0c1.1-0.4,1.9-0.7,2.5-0.9c0.8-0.4,1.8-0.9,3.2-1.5c0,0,0,0,0,0c0-0.1,0.7-0.4,2-0.8
				c0.8-0.4,1.4-0.6,1.9-0.6h0l0.4,0l0-0.1c0.4-0.2,0.7-0.3,0.8-0.3c0,0.1-0.1,0.2-0.3,0.2v0h0.2c0.3-0.1,0.6-0.2,0.8-0.2l0,0.1
				c0.2,0,0.3-0.1,0.4-0.1h0v0.2h0l0.2-0.1h0.3v0.1c-0.1,0-0.1,0-0.3,0.1l0,0.1c0,0.1-0.6,0.4-1.8,0.8v0h0.1
				c0.5-0.1,0.8-0.2,0.9-0.3l0.1,0c0-0.1,0-0.1,0.1-0.2l0.2,0.1c0-0.1,0-0.2,0.1-0.2h0c0,0.1,0.1,0.1,0.2,0.2
				c-0.1,0-0.5,0.2-1.2,0.6c-0.7,0.3-1.2,0.5-1.4,0.5v0h0.1c0,0,0.1,0,0.1,0l0.2,0c0.2,0,0.5-0.1,0.8-0.3l0,0.1v0l-0.5,0.1
				c0,0,0,0,0,0c0,0,0,0-0.1,0l0.1,0.1v0c-0.1,0-0.5,0.2-1.2,0.6c-0.1,0-0.4,0.2-1,0.5v0h0l0.3,0c-0.2,0.2-0.4,0.3-0.6,0.3l0,0.1v0
				l-0.1-0.1c-0.1,0.1-0.2,0.1-0.3,0.1l0,0.1v0l-0.1-0.1h-0.1v0.1h-0.2V110c0,0,0.2-0.1,0.7-0.2v0h-0.1c-0.7,0.2-1.7,0.6-3,1.2v0.1
				h0c0.1,0,0.2,0,0.4-0.1v0c0,0.1-0.3,0.2-0.8,0.4c0,0.2-0.9,0.6-2.7,1.3c0,0,0,0,0,0c-0.2,0.2-0.7,0.5-1.6,0.7
				c-1.3,0.5-2,0.8-2,0.9c-0.9,1.8-1.4,2.8-1.4,2.9h0l5.5-2.1c0,0,0,0,0.1,0c0-0.1,0.4-0.3,1.2-0.6c1.3-0.6,2.2-0.9,2.6-1
				c0.1,0,0.1,0,0.2,0c0,0,0.1,0,0.1,0l0.1,0c0.4-0.1,0.8-0.3,1.1-0.4l0,0.1c-0.1,0.1-0.2,0.1-0.2,0.2h0.1l0.2-0.1l0.1,0.1
				c0.1-0.1,0.3-0.1,0.4-0.1c0,0.2-0.1,0.3-0.2,0.3l0-0.1h0.1c0-0.1,0-0.1-0.1-0.1c0,0.1-0.1,0.1-0.2,0.2l0.1,0.2
				c-0.4,0.2-0.8,0.4-1.3,0.7c-0.9,0.3-1.4,0.5-1.4,0.6h0l1.6-0.6h0.1l0.1,0.2c0,0.1-0.2,0.2-0.4,0.2l0,0.1
				c-0.2,0.1-0.9,0.4-2.1,0.9c0,0.1,0,0.1,0.1,0.1c0.9-0.3,1.3-0.5,1.4-0.5l0,0.1l-2.8,1.4l-2.1,1c-0.3,0-1.1,0.3-2.3,0.8
				c0,0.1-0.3,0.2-0.9,0.5v0.1c0.1,0,0.3-0.1,0.4-0.2h0v0.1c-0.2,0.1-0.3,0.2-0.3,0.3c0,0-0.1,0-0.1,0c-0.1,0-0.2,0-0.4,0l0,0.1v0.1
				l-0.1-0.1h0c0,0.2-0.4,0.4-1.3,0.7c-1.1,0.4-1.7,0.7-1.7,0.9c-0.2,0.4-0.4,0.7-0.5,0.7l-0.3,0c0,0.1,0,0.1-0.1,0.1h-0.1
				c0-0.1-0.2-0.3-0.5-0.4c0-0.1-0.1-0.1-0.3-0.2c0-0.2,0-0.3-0.1-0.3l-0.4,0.2h0v-0.1c0.2-0.3,0.3-0.6,0.4-0.8
				c0-0.1-0.1-0.2-0.4-0.2l0-0.1l0-0.1c-0.2-0.1-0.3-0.3-0.4-0.6v-0.1c0.1-0.1,0.6-0.4,1.4-0.7c0.1-0.3,0.2-0.5,0.5-0.8h0l0-0.1
				c0.6-0.8,1-1.5,1.2-2.3c-0.1,0-0.2,0.1-0.4,0.2c-0.4-0.1-0.7-0.4-1.1-0.9c-0.5-0.5-0.8-0.9-0.8-1.1l-0.1-0.3
				c0.5-0.4,1.8-0.9,4.1-1.6c0.1,0,0.5-0.8,1.1-2.5c0.2-0.5,0.4-0.8,0.4-1.2l0.1,0l0-0.1c0.1,0,0.2-0.5,0.4-1.4
				c-0.2,0.1-0.3,0.1-0.4,0.1h-0.1c-0.7-0.3-1.1-0.5-1.3-0.8v0c0-0.1,0.8-0.5,2.5-1l0.3-0.4v-0.2l-0.1-0.1c0-0.1,0-0.1,0.1-0.1
				c0,0,0,0,0,0c0.1-0.2,0.2-0.2,0.2-0.2c0.2,0,0.5,0.1,1,0.4h0c2.4-0.8,6.2-2.3,11.4-4.4C403.8,99,405.2,98.6,405.8,98.6z
				 M394.1,115c0,0.1,0,0.1,0.1,0.1l0-0.1H394.1z M396.7,114.1L396.7,114.1c0,0.1,0,0.1-0.1,0.1h-0.3
				C396.3,114.1,396.5,114.1,396.7,114.1z M397.9,109.4L397.9,109.4c0,0.1,0,0.1-0.1,0.1h-0.1v-0.1
				C397.8,109.4,397.8,109.4,397.9,109.4z M398.6,106.7C398.6,106.7,398.7,106.8,398.6,106.7h0.1H398.6z M399,107.5L399,107.5
				L399,107.5h0.3v-0.1h0C399.2,107.5,399.1,107.5,399,107.5z M400.4,107.8h0.2c0,0.1-0.1,0.1-0.3,0.1L400.4,107.8
				C400.3,107.9,400.3,107.8,400.4,107.8z"/>
			<path id="XMLID_1868_" class="st4" d="M434.6,94.2c0.7,0,1.2,0.1,1.6,0.3c1.2,1,1.8,1.5,1.8,1.6c0,0.6-0.4,1.9-1.2,3.9
				c-0.4,0.9-1,2.5-1.8,4.8l-0.1,0.2v0.1c0.7-0.2,1.1-0.3,1.3-0.4l0.3,0.1c0-0.1,0.2-0.2,0.5-0.2c0.1,0,0.1,0.1,0.2,0.1
				c0-0.1,0.5-0.2,1.4-0.4c0.4-0.2,0.9-0.3,1.2-0.3v0.1l0.1-0.1h0.1l0.4,0.1c0-0.1,0.2-0.1,0.5-0.2c0.1-0.1,0.2-0.1,0.2-0.3l0.4-0.1
				c0.2,0,0.4,0.1,0.5,0.1v0.1c0,0.1-0.1,0.1-0.2,0.1v0.1h0.2c0.1,0,0.1,0,0.1-0.1c0,0-0.1,0-0.1-0.1c0.2-0.1,0.4-0.2,0.7-0.3
				c0.6,0.2,1,0.3,1.1,0.3c0-0.1,0.1-0.1,0.1-0.1h0.1c0.2,0,0.4,0.1,0.5,0.3c-0.2,0.1-0.3,0.1-0.3,0.2c0,0,0.1,0,0.1,0.1
				c-0.1,0-0.2,0.1-0.2,0.1l-0.3-0.1l0.1,0.1c0,0.1,0,0.1-0.1,0.1h-0.3v0.1c0,0.1,0.1,0.1,0.1,0.2l-0.1,0.1h-0.3v0.1h0.1
				c0.1-0.1,0.2-0.1,0.2-0.1v0.1c0.1-0.1,0.3-0.1,0.4-0.1v0.1c0,0.1-0.5,0.2-1.5,0.5c-0.3,0.1-0.5,0.2-0.5,0.3h-0.2l-0.2-0.1
				c-0.1,0.1-0.3,0.2-0.7,0.3v0.1c0.1,0,0.2,0.1,0.4,0.3c0.1,0,0.2-0.1,0.2-0.1v0.1c0,0.1-0.1,0.1-0.2,0.2l-0.1-0.1
				c0,0.1,0,0.1-0.1,0.1h-0.3v-0.1h0.4v-0.1c0-0.1-0.1-0.1-0.3-0.2c0,0.1,0,0.1-0.1,0.1h-0.1v-0.2h-0.1v0.1l0.1,0.1l-0.1,0.1h-0.1
				V106h-0.3v0.1l0.1-0.1h0.1v0.1c0,0.1-0.5,0.2-1.4,0.4c0,0.1,0.1,0.1,0.1,0.1c0.2-0.1,0.5-0.2,1-0.3h0.1v0.1c0,0-0.1,0-0.2,0.1
				l0.1,0.1v0.1l-0.2-0.1h-0.1c-0.3,0-0.4,0.1-0.4,0.2h0.2v-0.1h0.2v0.2c-0.4,0-0.8,0.1-1.2,0.3c-0.1,0-0.1-0.1-0.2-0.1
				c0,0.1,0,0.1-0.1,0.1l-0.2-0.1l-0.1,0.1l-0.1-0.1l-0.9,0.3c-0.1-0.1-0.2-0.1-0.2-0.1c-0.3,0.2-0.5,0.3-0.5,0.4
				c-0.8,0.2-1.3,0.4-1.6,0.6l0.1,0.1v0.1c0,0.1-0.2,0.2-0.4,0.2l-0.3-0.1c0,0.1-0.1,0.2-0.4,0.3l-1.6,3.9l-3.3,8.2
				c-0.2,0.3-0.7,1.5-1.5,3.4c-1,1.9-1.4,3-1.4,3.3c-0.1,0.3-0.2,0.4-0.3,0.4h-0.1c-0.1,0-0.1-0.1-0.1-0.2l-0.4,0.2
				c0-0.2-0.1-0.4-0.4-0.4c0-0.1-0.1-0.2-0.4-0.4c0,0.1-0.1,0.1-0.2,0.2c0-0.1-0.1-0.2-0.3-0.5c-0.2,0.1-0.3,0.1-0.4,0.1h-0.1v-0.1
				c0-0.1,0-0.2,0.1-0.3c-0.1-0.3-0.2-0.5-0.3-0.5c0.6-2.2,1-3.4,1.4-3.7c-0.1,0-0.1,0-0.1-0.1c0.1,0,0.3-0.2,0.4-0.7l0.1-0.1
				l-0.1-0.1v-0.2c0.6-1,1.2-2.3,1.8-4l-0.1-0.1c0.4-0.7,0.7-1.6,1.1-2.8c0.2-0.2,0.5-0.9,1-2.2c0.2-0.2,0.4-0.8,0.7-1.7
				c0.1-0.2,0.2-0.4,0.2-0.5c-0.1,0-0.2,0.1-0.2,0.1c0,0,0-0.1-0.1-0.1c0,0.1,0,0.1-0.1,0.1h-0.1l-0.2-0.1h-0.1l-0.2,0.1
				c-0.1,0-0.1-0.1-0.1-0.2c-0.5,0-1.2,0.2-2.2,0.6l0.1,0.3c-0.8,0.3-1.5,0.6-2.3,0.8c-0.5,0.1-0.8,0.2-0.8,0.3h-0.1l-0.2-0.1h-0.1
				l0.1,0.1l-0.1,0.1c0-0.1,0-0.1-0.1-0.1h-0.1l0.1,0.1v0.1l-4.1,1.3c-0.4,0-1.3,0.7-2.6,2.2c-4.6,4.1-7.7,6.4-9.5,6.9
				c-0.1,0-0.2,0-0.3,0.1c-0.5-0.1-1-0.3-1.5-0.8c-0.1,0-0.4-0.2-0.8-0.5c0,0,0.1,0,0.1-0.1c-0.1,0-0.1,0-0.1-0.1v-0.2
				c0.1-0.1,0.9-0.6,2.6-1.4c1.8-1.4,3.3-2.6,4.5-3.7v-0.1c-1.5,0.4-2.8,0.7-3.8,0.8c-0.1,0-0.2-0.1-0.3-0.1c0,0.1-0.1,0.2-0.3,0.2
				l-0.1-0.1c0,0,0.1,0,0.1-0.1c-0.3,0-0.8-0.3-1.3-0.9l-0.4-0.1h-0.3v-0.1l0.1-0.2v-0.1c-0.2,0-0.3-0.1-0.5-0.4v-0.3
				c0.4-0.3,1.8-0.8,4-1.2c0.7-0.3,2-0.7,4.1-1.2c0.9-0.4,1.7-0.6,2.6-0.8c0-0.1,0.2-0.2,0.5-0.3v0.1c0.7-0.2,1.3-0.5,1.7-1
				c0.2,0,0.4-0.1,0.4-0.4c0.1,0,0.4-0.3,0.9-0.8c0.2,0,0.3-0.1,0.4-0.3c0.2-0.3,0.9-1,2-2l3.4-3.3c1.4-1.3,2.1-1.9,2.2-1.9
				c0.4-0.5,1-1.1,1.9-1.8c0.1,0.1,0.1,0.1,0.2,0.1c0.1-0.3,0.2-0.4,0.3-0.4c0,0,0,0.1,0.1,0.1c0-0.2,0.1-0.3,0.4-0.3l-0.1-0.1v-0.1
				c0-0.1,0.1-0.1,0.1-0.1c0,0,0,0.1,0.1,0.1c0.3-0.3,0.4-0.5,0.4-0.5l0.1,0.1h0.1c0-0.4,0.8-1.1,2.4-2.3c0.2-0.3,0.6-0.7,1.2-1.1
				C433.5,94.8,433.9,94.5,434.6,94.2z M433.2,99.5v-0.2c-1.7,1.4-5.1,4.5-10.1,9.3H423v0.1c3.9-1.1,6.3-1.9,7.4-2.3
				c0,0,0-0.1,0.1-0.1c0,0,0.1,0,0.1,0.1c0.2,0,0.5-0.8,1.1-2.3c0.7-1.6,1-2.4,1-2.5c-0.1,0-0.2,0.2-0.4,0.7h-0.1c0,0,0-0.1-0.1-0.1
				c0.2-0.6,0.4-1,0.5-1.1l-0.1-0.1V101c0.1-0.1,0.3-0.6,0.6-1.5L433.2,99.5L433.2,99.5c0,0.3-0.1,0.7-0.4,1.2v0.2
				c0.1,0,0.3-0.7,0.8-2h-0.1L433.2,99.5z M429.3,98.5L429.3,98.5c0.1,0.1,0,0.1-0.1,0.2v-0.1C429.1,98.6,429.2,98.5,429.3,98.5z
				 M434.1,108.7h0.1c0.1,0,0.1,0,0.1-0.1v-0.1h-0.1C434.2,108.5,434.2,108.6,434.1,108.7z M435.7,107.3L435.7,107.3l-0.2-0.1
				c0,0.1-0.1,0.2-0.3,0.3H435l-0.3-0.2v0.1l0.1,0.1l-0.1,0.1c0-0.1,0-0.1-0.1-0.1h-0.1l0.1,0.1c-0.1,0-0.1,0.1-0.1,0.1v0.1l1.6-0.5
				c0-0.1,0-0.1-0.1-0.1L435.7,107.3z M436.1,107.3h0.1c0.1,0,0.2-0.1,0.2-0.1v-0.1h-0.2C436.1,107.1,436.1,107.2,436.1,107.3z
				 M436.4,107.1c0,0,0.1,0,0.2,0.1h0.1v-0.1c-0.1,0-0.2,0-0.2-0.1C436.4,107,436.4,107,436.4,107.1z M436.6,107.3h0.2v-0.1h-0.1
				C436.6,107.2,436.6,107.3,436.6,107.3z M437,106.9c0,0.1,0.1,0.1,0.1,0.1l0.1-0.1H437z M438.2,106.7L438.2,106.7l0.2,0.1v-0.1
				C438.3,106.6,438.2,106.7,438.2,106.7z M438.5,106.6h0.2v-0.1h-0.1C438.5,106.5,438.5,106.5,438.5,106.6z M438.7,106.9
				L438.7,106.9c0.2,0,0.2,0,0.2-0.1h-0.1C438.7,106.8,438.7,106.8,438.7,106.9z M441.3,104l-0.1,0.1h0.1c0.1,0,0.1-0.1,0.2-0.1V104
				H441.3z M444.3,104.6h0.2v0.1h-0.2V104.6z"/>
			<path id="XMLID_1861_" class="st4" d="M449.8,98.7c1,0,1.9,0.2,2.7,0.6c0.8,0.7,1.3,1.4,1.5,1.9c0,0.6-0.4,1.3-1.1,2
				c-0.4,0.6-1,1.2-1.6,1.6c-1.1,1-2,1.7-2.7,2.2c-0.3,0.3-1.2,1-2.8,2.2h0.1c0.5-0.1,1.3-0.2,2.2-0.2h0c1.5,0,2.6,0.5,3.2,1.6
				c0.3,0.3,0.5,0.6,0.5,1c0,0.8-0.8,1.9-2.5,3.2c-1.6,1.1-2.9,1.9-3.9,2.4c-2.1,1.1-4.1,2.1-6,3c-1,0.4-1.8,0.6-2.3,0.7l-0.1,0
				c-0.2,0.1-0.5,0.1-0.7,0.1h-0.1c-0.2-0.2-0.5-0.4-0.9-0.6c0-0.1-0.1-0.1-0.4-0.2c-0.4-0.3-0.5-0.4-0.5-0.5c0-0.1,0.2-0.3,0.7-0.4
				h0.5c0.1,0,0.1,0,0.2,0c0.5-0.1,1.1-0.4,1.8-0.6c0.4-0.1,1.2-0.5,2.5-1.2c1.2-0.5,3.2-1.6,5.9-3.1c2.2-1.5,3.5-2.8,3.8-3.6h-0.4
				c-2.3,0-5.2,0.8-8.9,2.4c-0.4,0.2-0.7,0.4-0.8,0.4h-0.1c-0.2-0.1-0.4-0.2-0.4-0.4c0,0-0.1-0.1-0.2-0.3c-0.2,0-0.3-0.1-0.3-0.3
				h-0.1c-0.4,0.5-1.3,2.1-2.8,4.8l-2.2,3.6c-0.2,0.3-0.3,0.4-0.4,0.5h-0.2c-0.1,0-0.1,0-0.2,0c-0.1,0-0.1,0-0.1,0
				c0-0.1-0.2-0.2-0.4-0.4l-0.1,0c0,0-0.2-0.1-0.4-0.3l-0.1,0c0,0-0.1-0.1-0.3-0.3v0c0-0.2,0.2-0.5,0.5-0.9c0-0.1,0.1-0.3,0.3-0.5
				l0.1,0c0-0.1,0-0.1,0.1-0.1l0-0.1V119c0.4-0.9,0.9-1.7,1.4-2.5c0.1,0,0.1-0.1,0.1-0.2l-0.1,0l0-0.1l0.4-0.6
				c0.1,0,0.2-0.2,0.5-0.5c0.1,0,0.1,0,0.1,0c0.5-0.8,0.7-1.2,0.7-1.4c0-0.2,0.2-0.5,0.5-0.9v0.1h0.1c0-0.2,0.2-0.4,0.6-0.8
				c0.2-0.3,0.5-0.9,0.9-1.9c0.4-0.6,0.6-1,0.6-1c0-0.1,0-0.1,0-0.1c0-0.1,0-0.1,0-0.1c-0.1,0-0.1,0-0.1-0.1l0.1-0.1v0.1h0
				c0,0,0-0.1,0.1-0.2v0l-0.1,0.1v0c0.1-0.2,0.2-0.3,0.2-0.3c0,0,0,0,0,0c0.1-0.2,0.1-0.3,0.1-0.3l-0.1,0v0c0-0.1,0-0.1,0.1-0.1
				c0,0,0,0,0,0c0.2-0.4,0.4-0.6,0.6-0.8c1-1.9,1.7-3.3,2-4.3h0l-2,0.9h-0.1c-0.3-0.1-0.4-0.2-0.5-0.4c0-0.1-0.3-0.3-0.8-0.7
				l-0.2-0.3c0-0.1,0.6-0.4,1.7-1c0.7-0.3,1.4-0.5,2.1-0.8c0.7-0.3,1.5-0.6,2.4-0.8c0.3-0.2,0.6-0.3,1-0.3c0.5-0.2,0.9-0.4,1.4-0.4
				c0.2-0.1,0.5-0.2,0.9-0.3C447.2,99,448.1,98.8,449.8,98.7z M437,111.9C437,112,437,112,437,111.9c0.1-0.1,0.2-0.2,0.3-0.3h0
				C437.2,111.6,437.1,111.7,437,111.9z M450.8,100.6h-0.1c-1.1,0-3.4,0.5-6.8,1.6c-0.2,0-0.4,0.4-0.6,1.1c-1.1,2.4-2.4,5-3.9,7.6h0
				c0.9-0.6,1.5-1,1.6-1c0.1,0,0.1,0,0.1,0c0,0,0.4-0.3,1.1-0.7c0.4-0.3,0.6-0.5,0.7-0.6c0,0,0,0,0,0c0.1,0,0.5-0.3,1.1-0.8h-0.1
				c0,0,0.1-0.1,0.2-0.2h0.1v0.1h-0.1v0.1l0.6-0.4v0l0-0.1l0.1-0.1h0v0.1c0.4-0.3,0.6-0.4,0.6-0.5l0.9-0.8v0l-0.3,0.2h0
				c0.1-0.1,0.2-0.2,0.3-0.3h0.1v0.1c0.1-0.1,0.1-0.1,0.2-0.1v-0.1l-0.1,0.1h0c0.1-0.2,0.5-0.6,1.1-1.1c0.1-0.1,0.4-0.3,0.8-0.6h0
				v0.2c0.2-0.1,0.3-0.2,0.3-0.3l0-0.1h0.1l0-0.1v0c0.2-0.2,0.8-0.8,1.7-1.7c0.1,0,0.4-0.5,1.1-1.4c0,0,0.1-0.1,0.2-0.3h-0.6
				c-0.1,0-0.1,0-0.2,0C450.9,100.6,450.8,100.6,450.8,100.6z M441.1,104.4v0.1H441v0h0.1v0l-0.1,0.1v0.1h0c0.1-0.1,0.2-0.4,0.4-0.8
				l-0.1,0L441.1,104.4z M444.6,107.3L444.6,107.3c0.1,0,0.1,0.1,0,0.1h0L444.6,107.3C444.5,107.4,444.5,107.3,444.6,107.3z
				 M445,107.1L445,107.1C445.1,107.1,445.1,107.1,445,107.1L445,107.1C445,107.1,445,107.1,445,107.1z"/>
			<path id="XMLID_1842_" class="st4" d="M470.1,98.6L470.1,98.6c0.8,0.3,1.3,0.7,1.4,1l0.5,1v0c0,0.2-0.3,0.2-1,0.2H471l-0.3,0
				c-0.6,0.1-1.7,0.3-3.3,0.8c-2.2,0.7-4.4,1.8-6.7,3.2c-1.1,0.7-2.1,1.6-3.1,2.6c-0.8,0.8-1.1,1.3-1.1,1.5h0.3c0.1,0,0.1,0,0.1,0
				l0.2,0h0.5c1.5-0.2,2.3-0.3,2.3-0.4v0h0.1l0.1,0c0-0.2,0.7-0.3,2.1-0.4c0-0.1,0-0.1,0.1-0.1c0,0,0,0,0,0l0.1,0c0.1,0,0.1,0,0.1,0
				c0,0,0-0.1,0.1-0.1h0.1l0.1,0c0-0.1,0-0.1,0.1-0.1c0.1,0,0.1,0,0.1,0c0-0.1,1-0.3,2.9-0.4c0,0,0,0,0,0c0,0,0,0,0,0
				c0.4-0.1,0.9-0.1,1.7-0.1h0l0.2,0v0c0,0,0,0,0,0c2.1,0,3.4,0.6,4.1,1.9c0.1,0,0.3,0.4,0.7,1.2c0,0,0,0,0,0l0,0.1v0.1
				c0,1-2.1,2.7-6.3,4.9c-4.4,2.3-8.8,4.4-13,6.1l-0.2,0c0-0.1-0.1-0.3-0.4-0.4l0-0.1v0c0,0,0,0,0,0c0-0.1-0.1-0.3-0.3-0.6
				c0-0.1-0.1-0.2-0.3-0.3V120c-0.1,0-0.1,0-0.1-0.1c0.1,0,0.2-0.1,0.2-0.1h0.1l0.1,0l0.4-0.3c0.1,0,0.1,0,0.1,0l0-0.1c0,0,0,0,0,0
				l0.1,0c0.5-0.2,0.8-0.4,0.8-0.5h0l0.1,0c0.1-0.1,0.5-0.3,1.3-0.7h0c0,0,0,0,0,0l1-0.4h0.1v0l0-0.1c0.1-0.1,0.2-0.1,0.3-0.1h0.2
				v-0.1h0l-0.1,0.1v-0.1c0,0,0.2-0.1,0.6-0.2c0-0.1,0.1-0.1,0.4-0.2c0-0.1,0.1-0.2,0.4-0.3h0.4c0-0.1,0.3-0.2,0.9-0.4l1.4-0.8
				c0.3-0.1,0.4-0.2,0.4-0.3l0.1,0h0v0H462v0c0-0.1,0.3-0.2,0.7-0.4v-0.1h-0.1c0,0.1,0,0.1-0.1,0.1l0-0.1c0.8-0.5,1.2-0.7,1.4-0.7v0
				c0,0.1,0,0.1-0.1,0.1v0h0c0.2-0.1,0.3-0.1,0.3-0.2h-0.1v0c0.2-0.1,0.6-0.4,1.2-0.7c0,0,0.2-0.1,0.4-0.3l0.1,0c0.1,0,0.1,0,0.1,0
				v0.1h-0.1v0.1h0c0.2,0,0.6-0.3,1.2-0.8h-0.1c0,0.1-0.1,0.1-0.3,0.2c0,0.1-0.2,0.2-0.6,0.4l0-0.1c0.6-0.4,1.1-0.7,1.4-0.8
				c0-0.1,0.2-0.3,0.6-0.4c0.2-0.2,0.4-0.2,0.4-0.2c-0.1,0.2-0.4,0.4-0.8,0.6v0h0.1c0.6-0.2,1.1-0.6,1.6-1.1h-0.1
				c-0.4,0.3-0.7,0.4-0.8,0.4c0.5-0.4,1.1-1,1.9-1.7v0c-0.1,0-0.7,0-1.5,0c-0.1,0-0.3,0-0.7,0.1c0,0,0,0,0,0c-1.5,0.2-4,0.5-7.4,1.1
				c-0.3,0-0.6,0-1,0.1v0c-0.2,0.1-0.5,0.1-0.9,0.1h-1.1c-1.2,0-2-0.5-2.5-1.5c0-0.3-0.1-0.5-0.4-0.8c-0.1-0.3-0.1-0.5-0.1-0.6V108
				c0.2-0.1,0.3-0.4,0.4-0.7c0.4-0.6,0.8-1,1.1-1.2c1.5-1.5,2.5-2.3,3-2.5l1.4-1c0-0.2,0.1-0.3,0.1-0.3l0,0.1v0.1h-0.1v0h0.1
				c0.3-0.2,0.9-0.5,1.7-0.9c0-0.1,0.1-0.2,0.4-0.2v-0.1l-0.2,0.1l0-0.1c0.3-0.2,0.5-0.3,0.6-0.5l1.5-0.6h0.1c0,0,0,0,0,0l0.1,0h0.1
				v0l-0.1,0.1c0.2,0.1,0.3,0.1,0.3,0.1c0-0.1,0.2-0.2,0.6-0.3v0c-0.1,0-0.1,0-0.1-0.1v-0.1c0-0.1,0.7-0.4,2.2-0.7
				C469,98.7,469.8,98.6,470.1,98.6z M453.9,119L453.9,119L453.9,119c0,0.1,0,0.1,0,0.1h-0.1C453.7,119.1,453.8,119.1,453.9,119z
				 M454.4,119.3L454.4,119.3c0.2,0,0.3-0.1,0.3-0.1h-0.1C454.5,119.2,454.4,119.2,454.4,119.3z M455,106.9L455,106.9L455,106.9
				c0.1,0.1,0.1,0.1,0,0.1V106.9z M455.3,106.6L455.3,106.6L455.3,106.6c0,0.1,0,0.1-0.1,0.2l0-0.1L455.3,106.6z M458.6,116.6h0.2
				c-0.4,0.2-1,0.5-1.8,0.9l0-0.1L458.6,116.6z M457.5,105.1L457.5,105.1l0.2-0.1h0C457.6,105,457.6,105,457.5,105.1z M457.8,104.9
				h0.2v-0.1h0C457.8,104.8,457.8,104.8,457.8,104.9z M459.2,117.4L459.2,117.4c0.1,0,0.1,0,0.1-0.1L459.2,117.4
				C459.3,117.3,459.2,117.3,459.2,117.4z M459.4,103.7L459.4,103.7c0.2,0,0.2,0,0.2-0.1v0C459.5,103.6,459.4,103.7,459.4,103.7z
				 M460.2,108.4L460.2,108.4l0.2,0v-0.1C460.3,108.4,460.3,108.4,460.2,108.4z M462.2,114.9L462.2,114.9c0,0.1-0.1,0.2-0.2,0.2
				l0-0.1C462,114.9,462.1,114.9,462.2,114.9z M462.7,108l0,0.1h0c0.1,0,0.1-0.1,0.1-0.1v0H462.7z M464.4,113.9L464.4,113.9
				c0.2,0,0.2,0,0.2-0.1L464.4,113.9C464.4,113.8,464.4,113.9,464.4,113.9z M464.7,113.7l0.1,0h0c0.1,0,0.1,0,0.1-0.1v0h-0.1
				C464.8,113.6,464.7,113.6,464.7,113.7z M465.4,113.3l0.1,0c0,0,0.1,0,0.1-0.1h-0.1C465.4,113.2,465.4,113.3,465.4,113.3z
				 M465.4,99.9h0.2v0.1h-0.2V99.9z M467.1,112.4L467.1,112.4c0.1,0,0.1,0,0.1-0.1L467.1,112.4C467.1,112.3,467.1,112.3,467.1,112.4
				z"/>
			<path id="XMLID_1830_" class="st4" d="M484.1,98.7L484.1,98.7c0.2,0.2,0.4,0.3,0.8,0.3c0,0.1,0.3,0.3,0.8,0.6l0.3,0
				c1.2,0.3,2.1,1,2.8,2c0.6,0.5,0.9,1.5,0.9,3.1l0,0.3c0,0.1,0,0.1,0,0.2c-0.1,0-0.3,0.7-0.5,2l-0.5,1.7c-0.5,1.4-1.4,3.1-2.7,5.2
				c-1,1.4-2.2,2.8-3.8,4.3c-2.2,1.8-4,2.8-5.3,3c0,0.1-0.6,0.2-1.9,0.2c-1.5,0-3-0.9-4.4-2.7c-0.5-0.7-0.8-1.4-0.8-1.9l0-0.3v-0.3
				c0.1-0.8,0.2-1.2,0.3-1.2l0-0.1c0.5-2.2,2-4.9,4.4-7.9c2.6-2.9,4.6-4.9,6.2-6.1C482.3,99.7,483.4,98.9,484.1,98.7z M470.2,116.6
				v0.3h0.1L470.2,116.6L470.2,116.6z M471.5,111.7l0.1,0.1c0,0.1-0.1,0.2-0.2,0.4h0.2c-0.1,0.1-0.1,0.2-0.1,0.3
				c0.5-0.6,0.8-1.1,0.8-1.5h0l0-0.3C472,111.1,471.7,111.4,471.5,111.7z M471.9,117.6c0.2,1.4,0.6,2.1,1.2,2.1
				c2.6,0,5.3-1.5,8.1-4.5c0.1,0,0.5-0.5,1.4-1.5c0.9-1.2,2-3,3.2-5.4c0.9-2.3,1.4-4.1,1.4-5.3v-0.9c0-0.6-0.2-0.9-0.6-0.9
				c-0.1,0-0.3,0-0.5,0c-0.7,0-1.7,0.2-2.8,0.5c-0.9,0.5-2.7,2.1-5.4,4.8C474,111,471.9,114.6,471.9,117.6z M472.2,111.9
				L472.2,111.9c0.1,0.1,0.1,0,0.1,0v-0.1C472.3,111.8,472.2,111.8,472.2,111.9z M472.3,110.7h0.1c0-0.1,0.1-0.3,0.3-0.6h0
				C472.6,110.1,472.5,110.3,472.3,110.7z M473.5,109L473.5,109c-0.1,0-0.3,0.3-0.7,0.9c0,0-0.1,0-0.1,0v0.1c0,0.1,0.1,0.1,0.1,0.1
				l0,0.1v0.1h0c0.1-0.1,0.4-0.6,0.9-1.4h0L473.5,109z M473.4,109.1v0.1c0,0.1-0.1,0.1-0.2,0.2l-0.1-0.1L473.4,109.1z M475.5,106.6
				c0,0.1-0.1,0.2-0.3,0.3c0-0.1,0-0.1-0.1-0.1c-0.2,0.2-0.7,0.7-1.3,1.6v0l0.1,0h0v0l-0.1,0.2v0h0.1l1.7-2.1H475.5z M477.6,104.2
				c0,0.1,0,0.1,0,0.2c-0.2,0.1-0.3,0.2-0.4,0.2l0.1-0.2h-0.1c-0.1,0-0.1,0.1-0.2,0.3c0.1,0,0.1,0,0.1,0.1c-0.1,0-0.2,0.1-0.3,0.3v0
				h0.1c1.5-1.4,2.3-2.2,2.6-2.2v0.1h0.1l0.2-0.2l0-0.1v0c0-0.1,0.9-0.9,2.6-2.5c0.1,0,0.4-0.3,1.1-0.8c0.4-0.2,0.7-0.4,0.7-0.4h0
				c-1.1,0.5-2.9,1.7-5.1,3.7C478.1,103.7,477.6,104.1,477.6,104.2L477.6,104.2z M479.3,103.3L479.3,103.3c0.1,0,0.1,0,0.1-0.1v0
				C479.4,103.2,479.3,103.2,479.3,103.3z"/>
			<path id="XMLID_1817_" class="st4" d="M499.8,98.7L499.8,98.7c0.1,0.2,0.1,0.3,0.1,0.3c0.1-0.1,0.2-0.1,0.3-0.1h0.2
				c0.7,0.5,1,0.8,1.1,1v0.1c-0.2,0.1-0.6,1.1-1.3,3c-1.3,3.1-3.9,7.7-7.8,13.5l-1.8,2.6h0.1c2.7-0.9,4.4-1.6,5.1-2
				c1.2-0.5,1.9-0.8,2.3-1.1l0.1,0l2.4-1l1.6-0.6c0,0.1,0,0.1,0.1,0.1c0-0.1,0-0.1,0.1-0.1h0.1v0.2h0.3c0-0.1,0.2-0.2,0.5-0.2v0
				h-0.2v-0.1l0.4,0l0.1,0l1.6-0.6v0.1c-1,0.4-1.6,0.7-1.7,0.8c1.6-0.7,2.5-1,2.6-1h0.2c0.1,0,0.1,0,0.1,0.1c-0.6,0.3-0.9,0.4-1,0.5
				v0.1l0.4,0c0,0.1,0,0.1,0.1,0.1c0.1-0.1,0.2-0.1,0.3-0.1l0-0.1v0l0.1,0.1h0.1l0.1-0.1h0.1v0.1h0c0.1,0,0.1-0.1,0.1-0.2h0
				c0,0.1,0,0.2,0.1,0.2c0.1,0,0.1,0,0.1,0v0c0,0.1-0.1,0.1-0.4,0.2l0,0.1c-0.5,0.3-1,0.6-1.5,0.8v0h0c0.3-0.2,0.7-0.3,1.1-0.4v0.1
				c-5.8,2.7-10.9,4.8-15.2,6.3c-1,0.3-1.6,0.4-1.7,0.4c-0.7,0-1.2-0.3-1.5-0.8l-0.8-0.5c0-0.1-0.1-0.2-0.4-0.4v0
				c0.8-0.9,1.3-1.6,1.6-2.1c0.2-0.2,0.5-0.7,1.1-1.6c0.3-0.3,0.4-0.5,0.4-0.6h0l0.1,0.1v-0.1l0-0.1l0.1,0c0,0,0,0,0,0
				c0.4-0.7,1.1-1.6,1.9-2.7h0v0c0,0.1,0,0.1,0,0.2h0.1c0-0.1,0.1-0.2,0.3-0.5v-0.1h0l-0.3,0.3v-0.1c0.9-1.4,1.7-2.7,2.4-4
				c0.1,0,0.3-0.3,0.6-1c0.1,0,0.4-0.5,0.8-1.3c0.4-0.5,0.5-0.8,0.6-0.8h0l0.1,0c0.7-1.1,1.4-2.6,2.2-4.5
				C499.2,99.4,499.5,98.7,499.8,98.7z M492.7,111.7c0,0.1-0.1,0.3-0.3,0.6v0C492.6,112.1,492.7,111.9,492.7,111.7L492.7,111.7z
				 M492.8,111.7c0.1-0.1,0.4-0.5,0.7-1.1C493,111.2,492.8,111.5,492.8,111.7z M502,115.1L502,115.1c0.2,0,0.2,0,0.2-0.1h-0.1
				C502.1,115,502,115,502,115.1z M502.8,114.6c0,0.1,0,0.1,0.1,0.1l0.3-0.2h-0.1C503,114.6,502.9,114.6,502.8,114.6z M504,114.6
				L504,114.6c0,0.1,0.1,0.1,0.1,0.2v-0.1C504.2,114.7,504.1,114.6,504,114.6L504,114.6z M504,115.7L504,115.7
				c0.2-0.1,0.3-0.1,0.3-0.1h0C504.1,115.6,504,115.6,504,115.7z M504.3,115.6L504.3,115.6c0.4-0.2,0.7-0.3,0.7-0.3v-0.1h-0.1
				C504.6,115.4,504.4,115.5,504.3,115.6z M504.5,114.5h0.1v-0.1h0C504.6,114.4,504.5,114.5,504.5,114.5z M504.8,114.3L504.8,114.3
				l0.2,0.1c0.1,0,0.1,0,0.1-0.1l0.1,0h0.1c0-0.1-0.1-0.1-0.2-0.2h0C505,114.2,504.9,114.3,504.8,114.3z M505.3,114.1L505.3,114.1
				L505.3,114.1l0.1,0.2l0,0.1h0.1c0.1,0,0.1,0,0.2-0.1L505.3,114.1L505.3,114.1z M505.6,114.2v0.1h0.2
				C505.8,114.2,505.7,114.2,505.6,114.2L505.6,114.2z"/>
			<path id="XMLID_1795_" class="st4" d="M513,98.7c0.2,0,0.3,0.1,0.3,0.2c0.1,0,0.1,0,0.2,0c0.6,0.2,1,0.5,1.4,1
				c-0.6,0.7-1.1,1.5-1.6,2.4c-4.9,8-7.4,12.1-7.4,12.4c-0.9,2.1-1.4,3.5-1.4,4.2v0.2c0,0,0,0.1,0,0.1c0,0,0,0,0,0c0,0,0,0.1,0,0.2
				c0,0.4,0.1,0.6,0.2,0.6c0.5-0.1,1.6-0.7,3.3-2c0.1,0,0.1,0,0.2,0l0.1-0.1c0-0.1,0-0.1,0-0.2c0.6-0.5,1.2-1.1,1.8-1.9
				c1.3-1.3,2.3-2.3,2.8-2.9h0.2v0h-0.1v-0.1c0,0,0.1,0,0.2,0c0,0.1,0.1,0.1,0.2,0.2c0.8-0.9,1.7-1.9,2.6-3.1
				c0.3-0.4,0.6-0.8,0.9-1.2h0c-0.1,0.2-0.2,0.3-0.2,0.3c0,0,0,0,0,0c0-0.1,0.4-0.6,1.1-1.3h0l-0.5,0.8h0c0.9-1,2.3-2.8,4.3-5.2
				c0.5-0.7,0.8-1.1,1-1.2v0.1l-2.1,2.8v0c0.2,0,0.3-0.2,0.4-0.4c0.1,0,0.4-0.4,1.1-1.1l0.2-0.2l0,0.1c0,0.1,0,0.1,0,0.2h0
				c0.3-0.2,0.5-0.5,0.6-0.7v-0.1h-0.1l-0.2,0.2h0c-0.1,0-0.1,0-0.1-0.1l0.8-1h0c0.1,0,0.1,0,0.1,0.1c0.3-0.1,0.5-0.3,0.5-0.4
				c0.5-0.6,0.8-0.8,1-0.8c0,0.1,0.1,0.1,0.1,0.2c0.1-0.1,0.2-0.1,0.3-0.1l0.1,0.1v0c-0.1,0-0.2,0-0.2,0.1c0,0,0.1,0,0.2,0
				c0-0.1,0.1-0.2,0.2-0.2v0c-0.2,0.6-0.9,1.5-2,2.9c-0.5,0.8-2.2,2.9-5.1,6.5c-1.6,2.2-4,4.8-6.9,7.9c-2.3,2.1-3.9,3.1-4.7,3.1
				c0,0-0.2,0.1-0.5,0.2H505c-1.1-0.3-1.6-0.7-1.6-1c-0.4-0.1-0.7-0.4-0.9-0.7c-0.2-0.6-0.3-0.9-0.3-1c0-0.4,0.1-0.7,0.1-0.7
				c0-0.1-0.1-0.1-0.1-0.2c0.1,0,0.2-0.4,0.3-1.2l0.1-0.1c0,0.1,0,0.1,0,0.2c-0.1,0.1-0.1,0.2-0.1,0.3v0h0.1
				c0.4-1.6,1.5-3.9,3.3-6.9c0.4-0.8,1.7-2.9,3.9-6.4c0,0,0.5-0.8,1.4-2.3v-0.1H511v0c0.4-0.9,0.6-1.4,0.8-1.4v0.1
				C512.3,99.3,512.7,98.9,513,98.7L513,98.7z M503.8,115c0,0.1,0,0.1-0.1,0.2v0h0.1C503.8,115.2,503.8,115.1,503.8,115L503.8,115
				L503.8,115z M504,114.7L504,114.7L504,114.7c0.5-1,0.9-1.7,1.1-1.9c0-0.1,0-0.1,0-0.2l0.2-0.2c0-0.1-0.1-0.1-0.1-0.2
				c-0.1,0-0.4,0.4-0.7,1.2c-0.2,0.3-0.3,0.7-0.4,1.1C504,114.6,504,114.6,504,114.7z M505.2,112c0,0,0,0.1-0.1,0.2h0.1
				C505.3,112.2,505.3,112.2,505.2,112L505.2,112z M505.6,111.5L505.6,111.5c0.1,0,0.2-0.2,0.4-0.5h0
				C505.8,111.1,505.7,111.2,505.6,111.5z M505.7,110.1L505.7,110.1l0.1,0.2h-0.1V110.1z M507.4,107.4L507.4,107.4
				c0,0.1,0,0.2-0.1,0.2h-0.1C507.2,107.5,507.3,107.5,507.4,107.4z M507.5,118.4L507.5,118.4c0.1,0,0.1,0,0.2,0v-0.1h0
				C507.6,118.3,507.5,118.3,507.5,118.4z M508.4,106.6L508.4,106.6c0,0.1,0,0.2,0.1,0.2l0-0.1v-0.1H508.4z M508.6,106.5
				L508.6,106.5c0.4-0.2,0.5-0.5,0.5-0.7c0.4-0.7,0.7-1,0.7-1.1h0C509.6,104.9,509.2,105.5,508.6,106.5z M511,101.5L511,101.5
				c0,0.1,0,0.2,0,0.2h-0.1v0C510.8,101.6,510.9,101.6,511,101.5z M513.1,113.4L513.1,113.4c0,0.1,0.1-0.1,0.4-0.4V113
				C513.5,113,513.3,113.1,513.1,113.4z M513.7,112.7l-0.2,0.2v0C513.6,112.9,513.7,112.8,513.7,112.7L513.7,112.7z M514,112.4
				L514,112.4c0.1-0.1,0.2-0.2,0.4-0.3c0,0,0-0.1,0-0.2h0C514.2,112.1,514,112.3,514,112.4z M514.5,111.8L514.5,111.8L514.5,111.8
				l0.8-0.9h-0.1C515,111.2,514.7,111.5,514.5,111.8z M515.7,110.3c0,0.1-0.1,0.1-0.2,0.2h0v0h0.1L515.7,110.3L515.7,110.3
				L515.7,110.3z M516.1,109.9L516.1,109.9L516.1,109.9c0.1,0,0.2-0.2,0.5-0.5v-0.1C516.5,109.2,516.4,109.5,516.1,109.9z
				 M517.6,108L517.6,108C517.7,108,517.7,108,517.6,108L517.6,108C517.6,107.9,517.6,107.9,517.6,108z M517.8,107.1L517.8,107.1
				c0,0.1,0,0.2-0.1,0.2v0C517.7,107.1,517.7,107.1,517.8,107.1z M517.9,107.6L517.9,107.6c0.3-0.2,0.5-0.4,0.7-0.5
				c0.1-0.2,0.4-0.6,0.9-1.1l0.8-1.2v0c-0.3,0-0.8,0.6-1.5,1.7L517.9,107.6z M521.7,103.6L521.7,103.6c0.1,0,0.1,0,0.1,0v-0.2
				C521.8,103.5,521.8,103.5,521.7,103.6z"/>
			<path id="XMLID_1780_" class="st4" d="M543.3,98.6c0.1,0.1,0.2,0.1,0.2,0.2c-0.1,0-0.1,0-0.1,0.1c0.3,0,0.5,0.1,0.6,0.3
				c0.1,0,0.1,0,0.1,0.1l-0.2,0.2h0l0.1,0c0.2,0,0.3,0.1,0.3,0.3c-0.1,0.1-0.4,0.2-0.8,0.3c-0.1,0-0.1,0-0.1,0v0.2
				c0.1-0.1,0.2-0.1,0.5-0.2c0.2,0,0.3,0.1,0.3,0.1c-0.1,0.1-0.4,0.2-0.8,0.3c0,0.1-0.3,0.1-0.9,0.2h-0.3c0,0-0.1,0.1-0.2,0.2h0.1
				v0.1l-0.3,0v0h0.3v0.1c-0.6,0.2-0.9,0.2-0.9,0.2v0h0.1l0.3,0l0,0.1v0c-0.7,0.1-1.8,0.4-3.3,0.8c-0.9,0.2-2,0.5-3.3,0.8l0-0.1
				c0.2-0.1,0.6-0.2,1.1-0.3v0h-0.1c-0.9,0.2-1.3,0.3-1.4,0.4c0,0.1,0,0.1,0,0.1c-0.2,0-0.3,0.3-0.6,0.9c-0.6,1.5-2.5,4-5.6,7.7
				c-1.5,1.8-3.6,4.5-6.2,8.2c-0.3,0.4-0.6,1-0.9,1.6l-0.2-0.1h-0.1l-0.1,0.1c-0.1-0.1-0.1-0.2-0.1-0.4c0,0,0,0,0,0
				c-0.2,0-0.2-0.1-0.2-0.4c0,0,0,0,0,0h-0.1l-0.1,0.1c-0.1-0.1-0.1-0.3-0.1-0.5c0,0,0,0,0,0l-0.1,0v0.2h-0.2c-0.1,0-0.1,0-0.1-0.1
				v0l0-0.3c-0.1,0-0.1,0-0.1-0.1c0.1-0.4,0.3-0.8,0.7-1.3c0.2-0.3,0.4-0.5,0.7-0.7l0.1-0.1v0h-0.1c0-0.1,0.3-0.6,0.8-1.4l0.2-0.2v0
				l0-0.1l0.2-0.1l0-0.1v0c0.3-0.5,0.6-0.7,0.8-0.8l0-0.1c0-0.1,0-0.1,0-0.1c0.1,0,0.3-0.2,0.5-0.5c0-0.1,0-0.1,0-0.2h0.1l0.1,0
				c0-0.1,0.3-0.4,0.8-1.1l1.2-1.7l0-0.1c0.6-0.8,1.1-1.4,1.7-2c0.1,0,0.4-0.3,1-1l0.2,0v0l-0.1-0.1c0.4-0.5,0.6-0.8,0.6-0.8
				c0.1,0,0.1,0,0.1,0c0-0.1,0.2-0.5,0.7-1l0-0.1c0.2-0.2,0.4-0.4,0.6-0.6c0-0.1,0-0.1,0-0.1c0,0,0.2-0.2,0.6-0.6l0,0.1
				c0,0-0.1,0.1-0.3,0.4h0c0.1,0,0.4-0.4,0.8-1.2v-0.1c-0.1,0-0.1,0-0.1-0.1h0c-0.1,0.1-0.4,0.1-1,0.2c-1.8,0.6-3.6,1.1-5.6,1.6
				c-0.7,0.3-1.6,0.5-2.7,0.8c0-0.1-0.1-0.2-0.1-0.2l-0.2,0c0,0,0,0,0,0l0-0.2c-0.2-0.3-0.3-0.4-0.3-0.4l-0.1-0.1v-0.2
				c-0.1,0-0.3-0.3-0.6-0.8c-0.1,0-0.1,0-0.1-0.1c0.2-0.1,0.8-0.3,2-0.6c1.8-0.6,4.9-1.5,9.5-2.6C538.9,99.5,542.6,98.6,543.3,98.6z
				 M529.7,107.1L529.7,107.1c0.1,0,0.2-0.1,0.2-0.2v0C529.9,106.9,529.8,107,529.7,107.1z M530.1,106.7L530.1,106.7
				c0.1,0,0.1,0,0.1,0v-0.1L530.1,106.7C530.1,106.6,530.1,106.6,530.1,106.7z M536.2,102.7L536.2,102.7L536.2,102.7
				c0.2,0,0.3,0,0.3,0v0h0C536.4,102.7,536.3,102.7,536.2,102.7z M537.3,102.4L537.3,102.4L537.3,102.4
				C537.4,102.4,537.4,102.4,537.3,102.4z M538.3,102.1L538.3,102.1l0.1,0c0.1,0,0.1,0,0.2,0v0h0L538.3,102.1z M538.9,102L538.9,102
				l0.1,0c0.1-0.1,0.2-0.1,0.3-0.1v0h-0.1C539.1,102,539,102,538.9,102z M539.4,101.8L539.4,101.8l0.2,0v0H539.4z M539.8,101.8
				L539.8,101.8L539.8,101.8l1.4-0.2v0H541C540.3,101.7,539.9,101.8,539.8,101.8z M541.5,100.7L541.5,100.7L541.5,100.7
				c0.1,0.1,0.1,0.1,0.1,0H541.5z M541.7,100.6L541.7,100.6L541.7,100.6c0.2,0,0.4,0,0.5,0v0c0,0,0-0.1-0.1-0.1h0
				C541.9,100.6,541.8,100.6,541.7,100.6z M542.2,100.3L542.2,100.3c0,0.1,0.1,0.2,0.2,0.2c0.1,0,0.1,0,0.1,0l-0.1-0.1h0.1l0.3,0.1
				c0.1,0,0.1,0,0.1,0v0h-0.1v0c0-0.1,0.1-0.1,0.2-0.1v-0.1C542.8,100.2,542.5,100.2,542.2,100.3z M542.2,100.8h0.1v0.1L542.2,100.8
				C542.3,100.9,542.2,100.9,542.2,100.8z M543.1,100.3L543.1,100.3l0.2,0.1v-0.1H543.1z"/>
			<path id="XMLID_1772_" class="st4" d="M557.9,98.6c0,0,0.1,0.1,0.3,0.2V99c-0.1,0.1-0.6,0.4-1.4,0.7l-0.1,0
				c-0.4,0.3-1,0.6-1.7,0.8c0,0,0,0-0.1,0c-0.2,0-0.8,0.2-1.9,0.7c-0.1,0-0.5,0.2-1.2,0.5c-0.5,0.2-0.9,0.4-1.1,0.4
				c-0.9,0.4-2,0.9-3.3,1.4l0,0.1v0.1c0,0.1-0.1,0.2-0.3,0.2h0l-0.1,0c0,0,0,0.1,0,0.1l-0.1,0h-0.1l0,0.1v0c-0.2,0-0.7,0.2-1.8,0.7
				l-2.4,0.9c-0.3,1.2-0.9,2.8-1.6,4.8h0c1.1-0.4,1.9-0.7,2.5-0.9c0.8-0.4,1.8-0.9,3.2-1.5c0,0,0,0,0,0c0-0.1,0.7-0.4,2-0.8
				c0.8-0.4,1.5-0.6,1.9-0.6h0l0.4,0l0-0.1c0.4-0.2,0.7-0.3,0.8-0.3c0,0.1-0.1,0.2-0.3,0.2v0h0.2c0.3-0.1,0.6-0.2,0.8-0.2l0,0.1
				c0.2,0,0.3-0.1,0.4-0.1h0v0.2h0l0.2-0.1h0.3v0.1c-0.1,0-0.2,0-0.3,0.1l0,0.1c0,0.1-0.6,0.4-1.8,0.8v0h0.1
				c0.5-0.1,0.8-0.2,0.9-0.3l0.1,0c0-0.1,0-0.1,0.1-0.2l0.2,0.1c0-0.1,0-0.2,0.1-0.2h0c0,0.1,0.1,0.1,0.2,0.2
				c-0.1,0-0.5,0.2-1.2,0.6c-0.7,0.3-1.2,0.5-1.4,0.5v0h0.1c0,0,0.1,0,0.1,0l0.2,0c0.2,0,0.5-0.1,0.8-0.3l0,0.1v0l-0.5,0.1
				c0,0,0,0,0,0c0,0,0,0-0.1,0l0.1,0.1v0c-0.1,0-0.5,0.2-1.2,0.6c-0.1,0-0.4,0.2-1,0.5v0h0l0.3,0c-0.2,0.2-0.4,0.3-0.6,0.3l0,0.1v0
				l-0.1-0.1c-0.1,0.1-0.2,0.1-0.3,0.1l0,0.1v0l-0.1-0.1h-0.1v0.1h-0.2V110c0,0,0.2-0.1,0.7-0.2v0H549c-0.7,0.2-1.7,0.6-3,1.2v0.1h0
				c0.1,0,0.2,0,0.4-0.1v0c0,0.1-0.3,0.2-0.8,0.4c0,0.2-0.9,0.6-2.7,1.3c0,0,0,0,0,0c-0.2,0.2-0.7,0.5-1.6,0.7c-1.3,0.5-2,0.8-2,0.9
				c-0.9,1.8-1.4,2.8-1.4,2.9h0l5.5-2.1c0,0,0,0,0.1,0c0-0.1,0.4-0.3,1.2-0.6c1.3-0.6,2.2-0.9,2.6-1c0.1,0,0.1,0,0.2,0
				c0,0,0.1,0,0.1,0l0.1,0c0.4-0.1,0.8-0.3,1.1-0.4l0,0.1c-0.1,0.1-0.2,0.1-0.2,0.2h0.1l0.2-0.1l0.1,0.1c0.1-0.1,0.3-0.1,0.4-0.1
				c0,0.2-0.1,0.3-0.2,0.3l0-0.1h0.1c0-0.1,0-0.1-0.1-0.1c0,0.1-0.1,0.1-0.2,0.2l0.1,0.2c-0.4,0.2-0.8,0.4-1.3,0.7
				c-0.9,0.3-1.4,0.5-1.4,0.6h0l1.6-0.6h0.1l0.1,0.2c0,0.1-0.1,0.2-0.4,0.2l0,0.1c-0.2,0.1-0.9,0.4-2.1,0.9c0,0.1,0,0.1,0.1,0.1
				c0.9-0.3,1.3-0.5,1.4-0.5l0,0.1l-2.8,1.4l-2.1,1c-0.3,0-1.1,0.3-2.3,0.8c0,0.1-0.3,0.2-0.9,0.5v0.1c0.1,0,0.3-0.1,0.4-0.2h0v0.1
				c-0.2,0.1-0.3,0.2-0.3,0.3c0,0-0.1,0-0.1,0c-0.1,0-0.2,0-0.4,0l0,0.1v0.1l-0.1-0.1h0c0,0.2-0.4,0.4-1.3,0.7
				c-1.1,0.4-1.7,0.7-1.7,0.9c-0.2,0.4-0.4,0.7-0.5,0.7l-0.3,0c0,0.1,0,0.1-0.1,0.1H535c0-0.1-0.2-0.3-0.5-0.4
				c0-0.1-0.1-0.1-0.3-0.2c0-0.2,0-0.3-0.1-0.3l-0.4,0.2h0v-0.1c0.2-0.3,0.3-0.6,0.4-0.8c0-0.1-0.1-0.2-0.4-0.2l0-0.1l0-0.1
				c-0.2-0.1-0.3-0.3-0.4-0.6v-0.1c0.1-0.1,0.6-0.4,1.4-0.7c0.1-0.3,0.2-0.5,0.5-0.8h0l0-0.1c0.6-0.8,1-1.5,1.2-2.3
				c-0.1,0-0.2,0.1-0.4,0.2c-0.4-0.1-0.7-0.4-1.1-0.9c-0.5-0.5-0.8-0.9-0.8-1.1L534,113c0.5-0.4,1.8-0.9,4.1-1.6
				c0.1,0,0.5-0.8,1.1-2.5c0.2-0.5,0.4-0.8,0.4-1.2l0.1,0l0-0.1c0.1,0,0.2-0.5,0.4-1.4c-0.2,0.1-0.3,0.1-0.4,0.1h-0.1
				c-0.7-0.3-1.1-0.5-1.3-0.8v0c0-0.1,0.8-0.5,2.5-1l0.3-0.4v-0.2l-0.1-0.1c0-0.1,0-0.1,0.1-0.1c0,0,0,0,0,0
				c0.1-0.2,0.2-0.2,0.2-0.2c0.2,0,0.5,0.1,1,0.4h0c2.4-0.8,6.2-2.3,11.4-4.4C555.9,99,557.3,98.6,557.9,98.6z M546.1,115
				c0,0.1,0,0.1,0.1,0.1l0-0.1H546.1z M548.8,114.1L548.8,114.1c0,0.1,0,0.1-0.1,0.1h-0.3C548.4,114.1,548.5,114.1,548.8,114.1z
				 M550,109.4L550,109.4c0,0.1,0,0.1-0.1,0.1h-0.1v-0.1C549.8,109.4,549.9,109.4,550,109.4z M550.7,106.7
				C550.7,106.7,550.7,106.8,550.7,106.7h0.1H550.7z M551.1,107.5L551.1,107.5L551.1,107.5h0.3v-0.1h0
				C551.2,107.5,551.1,107.5,551.1,107.5z M552.4,107.8h0.2c0,0.1-0.1,0.1-0.3,0.1L552.4,107.8C552.4,107.9,552.4,107.8,552.4,107.8
				z"/>
			<path id="XMLID_1765_" class="st4" d="M584.2,94.2c1.5,0,2.8,0.3,4,0.9c1.2,1.1,1.9,2.1,2.2,2.9c0,0.9-0.5,1.9-1.6,2.9
				c-0.7,0.9-1.4,1.7-2.4,2.4c-1.6,1.5-3,2.5-4,3.3c-0.4,0.4-1.8,1.5-4.1,3.3h0.1c0.8-0.2,1.9-0.3,3.3-0.3h0.1
				c2.2,0,3.8,0.8,4.7,2.4c0.5,0.4,0.7,1,0.7,1.5c0,1.2-1.2,2.8-3.7,4.8c-2.3,1.6-4.3,2.8-5.8,3.6c-3.1,1.7-6.1,3.1-9,4.4
				c-1.5,0.6-2.6,0.9-3.4,1.1l-0.1-0.1c-0.3,0.1-0.7,0.1-1.1,0.1h-0.1c-0.3-0.4-0.8-0.7-1.3-0.9c0-0.1-0.2-0.2-0.6-0.3
				c-0.5-0.4-0.8-0.7-0.8-0.8c0-0.2,0.3-0.4,1-0.5h0.8c0.1,0,0.2,0,0.3,0.1c0.7-0.2,1.6-0.5,2.6-0.9c0.5-0.1,1.8-0.7,3.8-1.8
				c1.8-0.8,4.7-2.3,8.7-4.6c3.3-2.3,5.2-4.1,5.6-5.4h-0.6c-3.3,0-7.7,1.2-13.2,3.6c-0.6,0.3-1,0.5-1.2,0.5h-0.2
				c-0.3-0.2-0.5-0.4-0.6-0.6c-0.1,0-0.2-0.1-0.3-0.4c-0.2,0-0.4-0.1-0.4-0.4h-0.1c-0.5,0.8-1.9,3.1-4.1,7l-3.2,5.3
				c-0.2,0.4-0.4,0.6-0.6,0.7h-0.3c-0.1,0-0.2,0-0.2-0.1c-0.1,0-0.1,0.1-0.2,0.1c0-0.1-0.2-0.4-0.6-0.6l-0.1,0.1
				c-0.1,0-0.2-0.1-0.6-0.4l-0.1,0.1c0,0-0.2-0.1-0.4-0.4v-0.1c0-0.3,0.3-0.7,0.8-1.3c0-0.2,0.2-0.4,0.5-0.8l0.1,0.1
				c0-0.1,0-0.2,0.1-0.2l-0.1-0.1v-0.1c0.7-1.3,1.4-2.6,2.1-3.8c0.1,0,0.1-0.1,0.1-0.3l-0.1,0.1l-0.1-0.1l0.6-0.8
				c0.1,0,0.4-0.3,0.8-0.8c0.1,0,0.1,0.1,0.2,0.1c0.7-1.1,1.1-1.8,1.1-2.1c0-0.3,0.2-0.8,0.7-1.4v0.1h0.1c0.1-0.3,0.3-0.6,0.9-1.1
				c0.4-0.5,0.8-1.4,1.4-2.8c0.6-1,0.9-1.5,0.9-1.5c0-0.1-0.1-0.1-0.1-0.2c0-0.1,0.1-0.1,0.1-0.2c-0.1,0-0.1,0-0.1-0.1l0.2-0.1v0.2
				h0.1c0-0.1,0-0.1,0.1-0.2v-0.1l-0.2,0.1v-0.1c0.2-0.3,0.3-0.4,0.3-0.4c0,0,0,0.1,0.1,0.1c0.1-0.2,0.2-0.4,0.2-0.4l-0.1,0.1v-0.1
				c0-0.1,0.1-0.1,0.1-0.1c0,0,0,0.1,0,0.1c0.3-0.5,0.6-0.9,0.9-1.1c1.5-2.8,2.5-4.9,3-6.3h0l-2.9,1.3h-0.1
				c-0.4-0.1-0.7-0.3-0.8-0.6c0-0.1-0.4-0.4-1.1-1l-0.3-0.5c0-0.2,0.8-0.7,2.5-1.4c1.1-0.4,2.1-0.8,3.1-1.2c1.1-0.4,2.3-0.8,3.5-1.2
				c0.4-0.3,0.9-0.4,1.4-0.4c0.7-0.3,1.4-0.6,2.1-0.6c0.3-0.1,0.7-0.3,1.4-0.4C580.4,94.5,581.7,94.3,584.2,94.2z M565.3,113.7
				c0,0.1,0,0.1,0.1,0.1c0.1-0.2,0.2-0.4,0.3-0.6h-0.1C565.6,113.3,565.4,113.5,565.3,113.7z M585.7,96.9h-0.2c-1.7,0-5,0.8-10,2.4
				c-0.3,0-0.6,0.5-0.9,1.6c-1.6,3.6-3.5,7.4-5.8,11.3h0.1c1.4-1,2.2-1.4,2.4-1.4c0.1,0,0.1,0.1,0.2,0.1c0-0.1,0.5-0.4,1.6-1.1
				c0.6-0.4,0.9-0.7,1-0.9c0,0,0,0,0-0.1c0.2,0,0.8-0.4,1.7-1.1h-0.2c0-0.1,0.1-0.2,0.3-0.3h0.1v0.1h-0.1v0.1l0.9-0.6V107l-0.1-0.1
				l0.2-0.1h0.1v0.2c0.6-0.4,0.9-0.6,0.9-0.7l1.4-1.1v-0.1l-0.4,0.3h-0.1c0.1-0.2,0.2-0.4,0.4-0.4h0.1v0.1c0.1-0.1,0.2-0.1,0.3-0.1
				v-0.1l-0.2,0.1h-0.1c0.2-0.4,0.8-0.9,1.6-1.6c0.1-0.1,0.6-0.5,1.2-0.9h0.1v0.3c0.3-0.2,0.4-0.3,0.4-0.4l-0.1-0.1h0.1l-0.1-0.1
				V102c0.3-0.3,1.2-1.1,2.6-2.6c0.1,0,0.6-0.7,1.6-2c0-0.1,0.1-0.2,0.3-0.5h-0.9c-0.1,0-0.2,0-0.2-0.1
				C585.9,96.9,585.8,96.9,585.7,96.9z M571.4,102.5v0.2h-0.1v0.1h0.1v0.1l-0.1,0.2v0.2h0.1c0.1-0.1,0.3-0.5,0.6-1.2l-0.1-0.1
				L571.4,102.5z M576.5,107h0.1c0,0.1-0.1,0.1-0.2,0.2h0v-0.1C576.4,107,576.4,107,576.5,107z M577.2,106.5L577.2,106.5
				c0,0.1,0,0.1-0.1,0.1h-0.1C577.1,106.6,577.1,106.5,577.2,106.5z"/>
			<path id="XMLID_1757_" class="st4" d="M612.9,98.6c0,0,0.1,0.1,0.3,0.2V99c-0.1,0.1-0.6,0.4-1.4,0.7l-0.1,0
				c-0.4,0.3-1,0.6-1.7,0.8c0,0,0,0-0.1,0c-0.2,0-0.8,0.2-1.9,0.7c-0.1,0-0.5,0.2-1.2,0.5c-0.5,0.2-0.9,0.4-1.1,0.4
				c-0.9,0.4-2,0.9-3.3,1.4l0,0.1v0.1c0,0.1-0.1,0.2-0.3,0.2h0l-0.1,0c0,0,0,0.1,0,0.1l-0.1,0h-0.1l0,0.1v0c-0.2,0-0.7,0.2-1.8,0.7
				l-2.4,0.9c-0.3,1.2-0.9,2.8-1.6,4.8h0c1.1-0.4,1.9-0.7,2.5-0.9c0.8-0.4,1.8-0.9,3.2-1.5c0,0,0,0,0,0c0-0.1,0.7-0.4,2-0.8
				c0.8-0.4,1.5-0.6,1.9-0.6h0l0.4,0l0-0.1c0.4-0.2,0.7-0.3,0.8-0.3c0,0.1-0.1,0.2-0.3,0.2v0h0.2c0.3-0.1,0.6-0.2,0.8-0.2l0,0.1
				c0.2,0,0.3-0.1,0.4-0.1h0v0.2h0l0.2-0.1h0.3v0.1c-0.1,0-0.2,0-0.3,0.1l0,0.1c0,0.1-0.6,0.4-1.8,0.8v0h0.1
				c0.5-0.1,0.8-0.2,0.9-0.3l0.1,0c0-0.1,0-0.1,0.1-0.2l0.2,0.1c0-0.1,0-0.2,0.1-0.2h0c0,0.1,0.1,0.1,0.2,0.2
				c-0.1,0-0.5,0.2-1.2,0.6c-0.7,0.3-1.2,0.5-1.4,0.5v0h0.1c0,0,0.1,0,0.1,0l0.2,0c0.2,0,0.5-0.1,0.8-0.3l0,0.1v0l-0.5,0.1
				c0,0,0,0,0,0c0,0,0,0-0.1,0l0.1,0.1v0c-0.1,0-0.5,0.2-1.2,0.6c-0.1,0-0.4,0.2-1,0.5v0h0l0.3,0c-0.2,0.2-0.4,0.3-0.6,0.3l0,0.1v0
				l-0.1-0.1c-0.1,0.1-0.2,0.1-0.3,0.1l0,0.1v0l-0.1-0.1h-0.1v0.1h-0.2V110c0,0,0.2-0.1,0.7-0.2v0H604c-0.7,0.2-1.7,0.6-3,1.2v0.1h0
				c0.1,0,0.2,0,0.4-0.1v0c0,0.1-0.3,0.2-0.8,0.4c0,0.2-0.9,0.6-2.7,1.3c0,0,0,0,0,0c-0.2,0.2-0.7,0.5-1.6,0.7c-1.3,0.5-2,0.8-2,0.9
				c-0.9,1.8-1.4,2.8-1.4,2.9h0l5.5-2.1c0,0,0,0,0.1,0c0-0.1,0.4-0.3,1.2-0.6c1.3-0.6,2.2-0.9,2.6-1c0.1,0,0.1,0,0.2,0
				c0,0,0.1,0,0.1,0l0.1,0c0.4-0.1,0.8-0.3,1.1-0.4l0,0.1c-0.1,0.1-0.2,0.1-0.2,0.2h0.1l0.2-0.1l0.1,0.1c0.1-0.1,0.3-0.1,0.4-0.1
				c0,0.2-0.1,0.3-0.2,0.3l0-0.1h0.1c0-0.1,0-0.1-0.1-0.1c0,0.1-0.1,0.1-0.2,0.2l0.1,0.2c-0.4,0.2-0.8,0.4-1.3,0.7
				c-0.9,0.3-1.4,0.5-1.4,0.6h0l1.6-0.6h0.1l0.1,0.2c0,0.1-0.1,0.2-0.4,0.2l0,0.1c-0.2,0.1-0.9,0.4-2.1,0.9c0,0.1,0,0.1,0.1,0.1
				c0.9-0.3,1.3-0.5,1.4-0.5l0,0.1l-2.8,1.4l-2.1,1c-0.3,0-1.1,0.3-2.3,0.8c0,0.1-0.3,0.2-0.9,0.5v0.1c0.1,0,0.3-0.1,0.4-0.2h0v0.1
				c-0.2,0.1-0.3,0.2-0.3,0.3c0,0-0.1,0-0.1,0c-0.1,0-0.2,0-0.4,0l0,0.1v0.1l-0.1-0.1h0c0,0.2-0.4,0.4-1.3,0.7
				c-1.1,0.4-1.7,0.7-1.7,0.9c-0.2,0.4-0.4,0.7-0.5,0.7l-0.3,0c0,0.1,0,0.1-0.1,0.1H590c0-0.1-0.2-0.3-0.5-0.4
				c0-0.1-0.1-0.1-0.3-0.2c0-0.2,0-0.3-0.1-0.3l-0.4,0.2h0v-0.1c0.2-0.3,0.3-0.6,0.4-0.8c0-0.1-0.1-0.2-0.4-0.2l0-0.1l0-0.1
				c-0.2-0.1-0.3-0.3-0.4-0.6v-0.1c0.1-0.1,0.6-0.4,1.4-0.7c0.1-0.3,0.2-0.5,0.5-0.8h0l0-0.1c0.6-0.8,1-1.5,1.2-2.3
				c-0.1,0-0.2,0.1-0.4,0.2c-0.4-0.1-0.7-0.4-1.1-0.9c-0.5-0.5-0.8-0.9-0.8-1.1L589,113c0.5-0.4,1.8-0.9,4.1-1.6
				c0.1,0,0.5-0.8,1.1-2.5c0.2-0.5,0.4-0.8,0.4-1.2l0.1,0l0-0.1c0.1,0,0.2-0.5,0.4-1.4c-0.2,0.1-0.3,0.1-0.4,0.1h-0.1
				c-0.7-0.3-1.1-0.5-1.3-0.8v0c0-0.1,0.8-0.5,2.5-1l0.3-0.4v-0.2l-0.1-0.1c0-0.1,0-0.1,0.1-0.1c0,0,0,0,0,0
				c0.1-0.2,0.2-0.2,0.2-0.2c0.2,0,0.5,0.1,1,0.4h0c2.4-0.8,6.2-2.3,11.4-4.4C610.9,99,612.3,98.6,612.9,98.6z M601.2,115
				c0,0.1,0,0.1,0.1,0.1l0-0.1H601.2z M603.8,114.1L603.8,114.1c0,0.1,0,0.1-0.1,0.1h-0.3C603.4,114.1,603.5,114.1,603.8,114.1z
				 M605,109.4L605,109.4c0,0.1,0,0.1-0.1,0.1h-0.1v-0.1C604.9,109.4,604.9,109.4,605,109.4z M605.7,106.7
				C605.7,106.7,605.7,106.8,605.7,106.7h0.1H605.7z M606.1,107.5L606.1,107.5L606.1,107.5h0.3v-0.1h0
				C606.2,107.5,606.2,107.5,606.1,107.5z M607.5,107.8h0.2c0,0.1-0.1,0.1-0.3,0.1L607.5,107.8C607.4,107.9,607.4,107.8,607.5,107.8
				z"/>
			<path id="XMLID_1738_" class="st4" d="M623.1,98.6L623.1,98.6c0.8,0.3,1.3,0.7,1.4,1l0.5,1v0c0,0.2-0.3,0.2-1,0.2H624l-0.3,0
				c-0.6,0.1-1.7,0.3-3.3,0.8c-2.2,0.7-4.4,1.8-6.7,3.2c-1.1,0.7-2.1,1.6-3.1,2.6c-0.8,0.8-1.1,1.3-1.1,1.5h0.3c0.1,0,0.1,0,0.1,0
				l0.2,0h0.5c1.5-0.2,2.3-0.3,2.3-0.4v0h0.1l0.1,0c0-0.2,0.7-0.3,2.1-0.4c0-0.1,0-0.1,0.1-0.1c0,0,0,0,0,0l0.1,0c0.1,0,0.1,0,0.1,0
				c0,0,0-0.1,0.1-0.1h0.1l0.1,0c0-0.1,0-0.1,0.1-0.1c0.1,0,0.1,0,0.1,0c0-0.1,1-0.3,2.9-0.4c0,0,0,0,0,0c0,0,0,0,0,0
				c0.4-0.1,0.9-0.1,1.7-0.1h0l0.2,0v0c0,0,0,0,0,0c2.1,0,3.4,0.6,4.1,1.9c0.1,0,0.3,0.4,0.7,1.2c0,0,0,0,0,0l0,0.1v0.1
				c0,1-2.1,2.7-6.3,4.9c-4.4,2.3-8.8,4.4-13,6.1l-0.2,0c0-0.1-0.1-0.3-0.4-0.4l0-0.1v0c0,0,0,0,0,0c0-0.1-0.1-0.3-0.3-0.6
				c0-0.1-0.1-0.2-0.3-0.3V120c-0.1,0-0.1,0-0.1-0.1c0.1,0,0.2-0.1,0.2-0.1h0.1l0.1,0l0.4-0.3c0.1,0,0.1,0,0.1,0l0-0.1c0,0,0,0,0,0
				l0.1,0c0.5-0.2,0.8-0.4,0.8-0.5h0l0.1,0c0.1-0.1,0.5-0.3,1.3-0.7h0c0,0,0,0,0,0l1-0.4h0.1v0l0-0.1c0.1-0.1,0.2-0.1,0.3-0.1h0.2
				v-0.1h0l-0.1,0.1v-0.1c0,0,0.2-0.1,0.6-0.2c0-0.1,0.1-0.1,0.4-0.2c0-0.1,0.1-0.2,0.4-0.3h0.4c0-0.1,0.3-0.2,0.9-0.4l1.4-0.8
				c0.3-0.1,0.4-0.2,0.4-0.3l0.1,0h0v0H615v0c0-0.1,0.3-0.2,0.7-0.4v-0.1h-0.1c0,0.1,0,0.1-0.1,0.1l0-0.1c0.8-0.5,1.2-0.7,1.4-0.7v0
				c0,0.1,0,0.1-0.1,0.1v0h0c0.2-0.1,0.3-0.1,0.3-0.2h-0.1v0c0.2-0.1,0.6-0.4,1.2-0.7c0,0,0.2-0.1,0.4-0.3l0.1,0c0.1,0,0.1,0,0.1,0
				v0.1h-0.1v0.1h0c0.2,0,0.6-0.3,1.2-0.8h-0.1c0,0.1-0.1,0.1-0.3,0.2c0,0.1-0.2,0.2-0.6,0.4l0-0.1c0.6-0.4,1.1-0.7,1.4-0.8
				c0-0.1,0.2-0.3,0.6-0.4c0.2-0.2,0.4-0.2,0.4-0.2c-0.1,0.2-0.4,0.4-0.8,0.6v0h0.1c0.6-0.2,1.1-0.6,1.6-1.1h-0.1
				c-0.4,0.3-0.7,0.4-0.8,0.4c0.5-0.4,1.1-1,1.9-1.7v0c-0.1,0-0.7,0-1.5,0c-0.1,0-0.3,0-0.7,0.1c0,0,0,0,0,0c-1.5,0.2-4,0.5-7.4,1.1
				c-0.3,0-0.6,0-1,0.1v0c-0.2,0.1-0.5,0.1-0.9,0.1h-1.1c-1.2,0-2-0.5-2.5-1.5c0-0.3-0.1-0.5-0.4-0.8c-0.1-0.3-0.1-0.5-0.1-0.6V108
				c0.2-0.1,0.3-0.4,0.4-0.7c0.4-0.6,0.8-1,1.1-1.2c1.5-1.5,2.5-2.3,3-2.5l1.4-1c0-0.2,0.1-0.3,0.1-0.3l0,0.1v0.1h-0.1v0h0.1
				c0.3-0.2,0.9-0.5,1.7-0.9c0-0.1,0.1-0.2,0.4-0.2v-0.1l-0.2,0.1l0-0.1c0.3-0.2,0.5-0.3,0.6-0.5l1.5-0.6h0.1c0,0,0,0,0,0l0.1,0h0.1
				v0l-0.1,0.1c0.2,0.1,0.3,0.1,0.3,0.1c0-0.1,0.2-0.2,0.6-0.3v0c-0.1,0-0.1,0-0.1-0.1v-0.1c0-0.1,0.7-0.4,2.2-0.7
				C622,98.7,622.8,98.6,623.1,98.6z M606.9,119L606.9,119L606.9,119c0,0.1,0,0.1,0,0.1h-0.1C606.7,119.1,606.8,119.1,606.9,119z
				 M607.4,119.3L607.4,119.3c0.2,0,0.3-0.1,0.3-0.1h-0.1C607.5,119.2,607.4,119.2,607.4,119.3z M608,106.9L608,106.9L608,106.9
				c0.1,0.1,0.1,0.1,0,0.1V106.9z M608.3,106.6L608.3,106.6L608.3,106.6c0,0.1,0,0.1-0.1,0.2l0-0.1L608.3,106.6z M611.6,116.6h0.2
				c-0.4,0.2-1,0.5-1.8,0.9l0-0.1L611.6,116.6z M610.5,105.1L610.5,105.1l0.2-0.1h0C610.6,105,610.6,105,610.5,105.1z M610.8,104.9
				h0.2v-0.1h0C610.8,104.8,610.8,104.8,610.8,104.9z M612.2,117.4L612.2,117.4c0.1,0,0.1,0,0.1-0.1L612.2,117.4
				C612.2,117.3,612.2,117.3,612.2,117.4z M612.4,103.7L612.4,103.7c0.2,0,0.2,0,0.2-0.1v0C612.5,103.6,612.4,103.7,612.4,103.7z
				 M613.2,108.4L613.2,108.4l0.2,0v-0.1C613.3,108.4,613.3,108.4,613.2,108.4z M615.2,114.9L615.2,114.9c0,0.1-0.1,0.2-0.2,0.2
				l0-0.1C615,114.9,615.1,114.9,615.2,114.9z M615.7,108l0,0.1h0c0.1,0,0.1-0.1,0.1-0.1v0H615.7z M617.4,113.9L617.4,113.9
				c0.2,0,0.2,0,0.2-0.1L617.4,113.9C617.4,113.8,617.4,113.9,617.4,113.9z M617.7,113.7l0.1,0h0c0.1,0,0.1,0,0.1-0.1v0h-0.1
				C617.7,113.6,617.7,113.6,617.7,113.7z M618.3,113.3l0.1,0c0,0,0.1,0,0.1-0.1h-0.1C618.4,113.2,618.3,113.3,618.3,113.3z
				 M618.4,99.9h0.2v0.1h-0.2V99.9z M620.1,112.4L620.1,112.4c0.1,0,0.1,0,0.1-0.1L620.1,112.4C620.1,112.3,620.1,112.3,620.1,112.4
				z"/>
			<path id="XMLID_1723_" class="st4" d="M650.2,98.6c0.1,0.1,0.2,0.1,0.2,0.2c-0.1,0-0.1,0-0.1,0.1c0.3,0,0.5,0.1,0.6,0.3
				c0.1,0,0.1,0,0.1,0.1l-0.2,0.2h0l0.1,0c0.2,0,0.3,0.1,0.3,0.3c-0.1,0.1-0.4,0.2-0.8,0.3c-0.1,0-0.1,0-0.1,0v0.2
				c0.1-0.1,0.2-0.1,0.5-0.2c0.2,0,0.3,0.1,0.3,0.1c-0.1,0.1-0.4,0.2-0.8,0.3c0,0.1-0.3,0.1-0.9,0.2h-0.3c0,0-0.1,0.1-0.2,0.2h0.1
				v0.1l-0.3,0v0h0.3v0.1c-0.6,0.2-0.9,0.2-0.9,0.2v0h0.1l0.3,0l0,0.1v0c-0.7,0.1-1.8,0.4-3.3,0.8c-0.9,0.2-2,0.5-3.3,0.8l0-0.1
				c0.2-0.1,0.6-0.2,1.1-0.3v0h-0.1c-0.9,0.2-1.3,0.3-1.4,0.4c0,0.1,0,0.1,0,0.1c-0.2,0-0.3,0.3-0.6,0.9c-0.6,1.5-2.5,4-5.6,7.7
				c-1.5,1.8-3.6,4.5-6.2,8.2c-0.3,0.4-0.6,1-0.9,1.6l-0.2-0.1H628l-0.1,0.1c-0.1-0.1-0.1-0.2-0.1-0.4c0,0,0,0,0,0
				c-0.2,0-0.2-0.1-0.2-0.4c0,0,0,0,0,0h-0.1l-0.1,0.1c-0.1-0.1-0.1-0.3-0.1-0.5c0,0,0,0,0,0l-0.1,0v0.2H627c-0.1,0-0.1,0-0.1-0.1v0
				l0-0.3c-0.1,0-0.1,0-0.1-0.1c0.1-0.4,0.3-0.8,0.7-1.3c0.2-0.3,0.4-0.5,0.7-0.7l0.1-0.1v0h-0.1c0-0.1,0.3-0.6,0.8-1.4l0.2-0.2v0
				l0-0.1l0.2-0.1l0-0.1v0c0.3-0.5,0.6-0.7,0.8-0.8l0-0.1c0-0.1,0-0.1,0-0.1c0.1,0,0.3-0.2,0.5-0.5c0-0.1,0-0.1,0-0.2h0.1l0.1,0
				c0-0.1,0.3-0.4,0.8-1.1l1.2-1.7l0-0.1c0.6-0.8,1.1-1.4,1.7-2c0.1,0,0.4-0.3,1-1l0.2,0v0l-0.1-0.1c0.4-0.5,0.6-0.8,0.6-0.8
				c0.1,0,0.1,0,0.1,0c0-0.1,0.2-0.5,0.7-1l0-0.1c0.2-0.2,0.4-0.4,0.6-0.6c0-0.1,0-0.1,0-0.1c0,0,0.2-0.2,0.6-0.6l0,0.1
				c0,0-0.1,0.1-0.3,0.4h0c0.1,0,0.4-0.4,0.8-1.2v-0.1c-0.1,0-0.1,0-0.1-0.1h0c-0.1,0.1-0.4,0.1-1,0.2c-1.8,0.6-3.6,1.1-5.6,1.6
				c-0.7,0.3-1.6,0.5-2.7,0.8c0-0.1-0.1-0.2-0.1-0.2l-0.2,0c0,0,0,0,0,0l0-0.2c-0.2-0.3-0.3-0.4-0.3-0.4l-0.1-0.1v-0.2
				c-0.1,0-0.3-0.3-0.6-0.8c-0.1,0-0.1,0-0.1-0.1c0.2-0.1,0.8-0.3,2-0.6c1.8-0.6,4.9-1.5,9.5-2.6C645.8,99.5,649.5,98.6,650.2,98.6z
				 M636.6,107.1L636.6,107.1c0.1,0,0.2-0.1,0.2-0.2v0C636.8,106.9,636.7,107,636.6,107.1z M636.9,106.7L636.9,106.7
				c0.1,0,0.1,0,0.1,0v-0.1L636.9,106.7C637,106.6,636.9,106.6,636.9,106.7z M643.1,102.7L643.1,102.7L643.1,102.7
				c0.2,0,0.3,0,0.3,0v0h0C643.2,102.7,643.1,102.7,643.1,102.7z M644.2,102.4L644.2,102.4L644.2,102.4
				C644.3,102.4,644.3,102.4,644.2,102.4z M645.2,102.1L645.2,102.1l0.1,0c0.1,0,0.1,0,0.2,0v0h0L645.2,102.1z M645.8,102L645.8,102
				l0.1,0c0.1-0.1,0.2-0.1,0.3-0.1v0h-0.1C646,102,645.9,102,645.8,102z M646.3,101.8L646.3,101.8l0.2,0v0H646.3z M646.6,101.8
				L646.6,101.8L646.6,101.8l1.4-0.2v0h-0.1C647.2,101.7,646.8,101.8,646.6,101.8z M648.4,100.7L648.4,100.7L648.4,100.7
				c0.1,0.1,0.1,0.1,0.1,0H648.4z M648.6,100.6L648.6,100.6L648.6,100.6c0.2,0,0.4,0,0.5,0v0c0,0,0-0.1-0.1-0.1h0
				C648.8,100.6,648.7,100.6,648.6,100.6z M649,100.3L649,100.3c0,0.1,0.1,0.2,0.2,0.2c0.1,0,0.1,0,0.1,0l-0.1-0.1h0.1l0.3,0.1
				c0.1,0,0.1,0,0.1,0v0h-0.1v0c0-0.1,0.1-0.1,0.2-0.1v-0.1C649.7,100.2,649.4,100.2,649,100.3z M649.1,100.8h0.1v0.1L649.1,100.8
				C649.1,100.9,649.1,100.9,649.1,100.8z M650,100.3L650,100.3l0.2,0.1v-0.1H650z"/>
		</g>
	</g>
</g>
</svg>
