<?xml version="1.0" encoding="utf-8"?>
<!-- Generator: Adobe Illustrator 19.0.0, SVG Export Plug-In . SVG Version: 6.00 Build 0)  -->
<svg version="1.1" id="Layer_1" xmlns="http://www.w3.org/2000/svg" xmlns:xlink="http://www.w3.org/1999/xlink" x="0px" y="0px"
	 viewBox="0 0 125 125" style="enable-background:new 0 0 125 125;" xml:space="preserve">
<style type="text/css">
	.st0{fill:#152048;}
	.st1{fill:#C12333;}
	.st2{clip-path:url(#XMLID_38_);fill:url(#XMLID_39_);}
	.st3{clip-path:url(#XMLID_40_);fill:url(#XMLID_41_);}
	.st4{clip-path:url(#XMLID_42_);}
	.st5{clip-path:url(#XMLID_43_);fill:url(#XMLID_44_);}
</style>
<g id="XMLID_2_">
	<g id="XMLID_28_">
		<path id="XMLID_37_" class="st0" d="M33.2,46.5c1.9-0.5,3.1-1,4.2-1.5c0.8-0.4,3.2-1.8,3.6-2.4c0.3-0.6,0.6-1.1,1-1.6
			c0.7-0.9,1.6-1.5,3.1-2l0,0c0.5-0.2,2.3-0.9,3.7-1.7c0.5-0.3,1.1-0.8,1.5-1.2c0.5-0.5,0.7-0.7,0.9-0.9c0.2-0.2,0.6-0.5,1.1-0.7
			c0.2-0.1,1.2-0.4,1.2-0.4s-1.5,0-2.2,0.5c0,0-0.6-0.6-1.1-1.1c-0.6-0.7-0.8-0.9-1-1.2c-0.3-0.3-1.1-1-1.3-1.2
			c-0.2-0.2-1.9-1.1-2.2-1.3c-0.4-0.3-1.1-1.1-1.6-1.5c-0.2-0.2-1.2-1.2-2-1.5c0,0-0.5-0.2-0.7-0.3c-0.1-0.1-0.2-0.2-0.4-0.2
			c-0.3-0.1-0.7-0.3-0.8-0.4c-0.1-0.1-0.5-0.4-0.5-0.4c-0.1-0.1,0.2-0.2,0.3-0.2c0.1,0,0.2,0.1,0.3,0.1c0.1,0,0.2,0.2,0.4,0.3
			c0.2,0,0.4,0,0.5,0c0.1,0,0.1-0.1-0.1-0.2c-0.1-0.1-0.4-0.3-0.5-0.4c-0.1-0.1-0.3-0.2-0.4-0.2c-0.1,0-0.2-0.1-0.2-0.2l0-0.1
			c0,0-0.1,0-0.1-0.1c0,0-0.3-0.2-0.3-0.4c-0.2-0.1-0.3-0.2-0.3-0.4c0-0.1,0-0.1,0.1-0.1c0,0,0.8,0.3,1,0.4c0.1,0,0.3,0.1,0.5,0.2
			c0.3,0.1,0.5,0.2,0.7,0.3c0.2,0.1,0.4,0.3,0.4,0.3c0.2,0.2,1,1.1,1.4,1.3c0.4,0.3,0.9,0.6,1.9,1.1c0.9,0.5,1.8,0.8,2.5,1.4
			c0,0,1.2,1,1.4,1.1c0.2,0.2,1.8,1,2.3,1.3c0.7,0.4,2.2,1.1,2.7,1.4c0.7,0.5,1,0.8,1.1,1c0.3,0.4,0.4,0.4,0.5,0.5
			c0.1,0,0.2,0,0.6,0.1c0.2,0,0.4,0.1,0.6,0.1c0.1,0,0.6,0.3,1.3,0.6c0.3,0.2,0.9,0.6,1.6,0.8c0.3,0.1,0.6,0.1,0.6,0.1
			c0,0-1.1-0.4-2.4-1.6c-0.1-0.1-0.4-0.3-0.5-0.4c0-0.2,0-0.3,0-0.6c0-1.3,0.7-2.1,1.4-2.5c0.8-0.4,1.5-0.4,2.3-0.3
			c0.8,0.1,1.3,0.4,1.9,1c0.6,0.6,0.8,1.4,0.9,1.8c0.1,0.6,0.1,1.2,0.1,1.6c0,0.7-0.1,1.1-0.2,1.6c0,0,0.9-0.2,1.7-0.2
			c1,0,1.3,0,2.2-0.2c0.9-0.1,2.1-0.4,3.9-0.7c1.7-0.3,1.4-0.2,2.7-0.6c0.6-0.2,1.8-0.8,2-0.8c0.3-0.1,0.9,0,1.1-0.1
			c0.1-0.1,0.1-0.7,0.3-0.7c0.2,0,0.8,0.1,1.3,0.6c1.7-0.4,9.1-2.4,16.4-3.9c0-3.1,0-5.3,0-5.8c0-1.5-0.6-3.1-2.1-4
			C89.8,17.8,79.3,12,63.5,12l-0.1,0l-0.1,0C47.6,12,37,17.8,34,19.7c-1.5,1-2.1,2.5-2.1,4c0,1.3,0,23.2,0,23.2
			C32.4,46.7,32.7,46.6,33.2,46.5"/>
		<path id="XMLID_36_" class="st0" d="M95,30.3c-7.5,1.8-14.2,3.6-15.8,4.1c0.2,0.6,0.1,1.3,0,1.3c0,0,0,0-0.1,0
			c-0.1-0.1-0.3-0.4-0.4-0.5c-0.1-0.1-0.3-0.2-0.4-0.1c-0.1,0.1,0,0.5-0.2,0.5c-0.2,0-0.4-0.2-0.6,0c-0.2,0.2-0.8,0.9-1.6,0.8
			c-0.4,0-0.7,0-1,0c0,0-0.9-0.2-1.6,0c0,0,0.8,0,1,0.2c-0.8,0.2-2.6,1.2-6,2.2c-0.9,0.3-1.6,0.2-3.5,0.4c-2.2,0.3-2.2,0.4-3.3,0.4
			c-0.7,0-1-0.1-2.1,0.1c0,0,0.6,0,1.4,0.4c-0.6,0.4-1.5,1-2.4,1.3c-2.4,0.7-5.3,1-6.9,1.4c-0.8,0.2-1.7,0.5-1.7,0.5
			c-0.8-0.4-1.3-1.1-1.3-1.1s0.9,1.7,1.3,2.3c0.5,0.8,1.2,2.1,1.5,3.1c0.5,1.3,1.1,2.8,0.9,3.8c-0.1,0.7-0.6,0.9-1,1
			c-0.2,0.1-0.8,0-0.9,0.1c-0.4,0.1-1.4-0.1-1.9-0.3c-0.6-0.3-1.5-0.7-1.8-0.8c-0.3-0.1-3.6-1.7-4.9-2c-0.9-0.2-1.8,0-2.5,0.3
			c-0.4,0.2-1.4,0.6-1.8,0.9c-0.4,0.3-1,1.3-1.3,1.4c-0.2,0.1-0.4,0-0.5,0c-0.1-0.1-0.3-0.6,0-1.6c0.1-0.4,0.4-0.7,0.6-1
			c0.2-0.2,0.7-0.8,0.8-1.3c0.1-0.5,0.2-0.7,0.2-0.7s-0.5,1.3-1.7,2.1c-0.2,0.2-0.4,0.2-0.6,0.2c-0.3,0-0.8-0.1-1,0
			c-0.6,0.2-1.5,0.3-2.4,0.5c0,1.8,0,3,0,3.3c0,2,0,5.1,3,8.7c0.6,0.7,1.1,1.4,1.7,1.9C50.2,55.8,91.2,43.9,95,42.8
			C95,38.6,95,33.9,95,30.3"/>
		<path id="XMLID_35_" class="st0" d="M45.5,46.9c-1.8-1.4-2.4-2.4-2.4-2.4s0.6,1.3,1.1,1.8c0,0-0.7,0.2-1.2,0.4
			c-0.9,0.2-2.3,0.5-2.3,0.5C41.8,47,43,47,43,47c1.2-0.1,2.1,0.1,2.1,0.1c0.7,0.4,1.5,1,2,1.7C47.2,48.8,46.4,47.6,45.5,46.9"/>
		<path id="XMLID_32_" class="st0" d="M63.4,89.9l-0.6-0.4l-2-1.3c-0.4-0.3-9.6-6.5-17-12.1c-7.1-5.4-9.1-7.1-12.5-11.2
			c-4-4.9-4-9.2-4-11.6c0-0.4,0-29.1,0-29.6c0-3.3,1.6-6.2,4.3-7.9c4.1-2.5,15.3-8.4,31.8-8.4h0.1c16.5,0,27.7,5.9,31.8,8.4
			c2.7,1.7,4.3,4.6,4.3,7.9c0,0.5,0,29.1,0,29.6c0,2.3,0,6.7-4,11.6C92.2,69,90.2,70.7,83,76.1c-7.3,5.6-16.6,11.8-17,12.1
			L63.4,89.9z M63.4,87.4l1.4-1c0.4-0.3,9.6-6.5,16.9-12c6.9-5.3,8.9-6.9,12.1-10.9c3.5-4.3,3.5-8.2,3.5-10.2c0-0.4,0-29.1,0-29.6
			c0-2.6-1.2-4.8-3.3-6.1c-3.9-2.4-14.7-8.1-30.7-8.1h-0.1c-16,0-26.7,5.7-30.6,8.1c-2.1,1.3-3.3,3.5-3.3,6.1c0,0.5,0,29.1,0,29.6
			c0,2.1,0,5.9,3.5,10.2c3.2,3.9,5.2,5.6,12.1,10.9c7.3,5.6,16.5,11.7,16.9,12L63.4,87.4z"/>
		<path id="XMLID_31_" class="st1" d="M94.9,43.7C61,54.3,44.3,64,39.7,67c1.5,1.3,3.5,2.9,6.5,5.1C57.6,64,85.3,53.4,94.9,49.7
			C94.9,48,94.9,45.9,94.9,43.7"/>
		<path id="XMLID_30_" class="st1" d="M63.4,84.4L63.4,84.4L63.4,84.4c0.1,0,9.6-6.3,16.9-11.9c7-5.3,8.7-6.8,11.7-10.5
			c1.3-1.6,2-3,2.4-4.3C73.2,69.1,62.6,78,58.9,81.4C61.6,83.2,63.4,84.4,63.4,84.4"/>
		<path id="XMLID_29_" class="st1" d="M94.9,53.3c0-0.3,0-1.3,0-2.8c-27.6,11.3-41.3,20.8-45.6,24c2.3,1.7,4.7,3.4,6.8,4.9
			c9.1-7.7,30.3-18.5,38.5-22.7C94.9,55.4,94.9,54.3,94.9,53.3"/>
	</g>
	<g id="XMLID_25_">
		<defs>
			<path id="XMLID_26_" d="M44.3,46.6L44.3,46.6L44.3,46.6z"/>
		</defs>
		<clipPath id="XMLID_38_">
			<use xlink:href="#XMLID_26_"  style="overflow:visible;"/>
		</clipPath>
		
			<linearGradient id="XMLID_39_" gradientUnits="userSpaceOnUse" x1="-332.3709" y1="367.6131" x2="-331.8005" y2="367.6131" gradientTransform="matrix(116.7619 -40.2044 -40.2044 -116.7619 53618.1914 29611.8906)">
			<stop  offset="0" style="stop-color:#141E40"/>
			<stop  offset="0.2466" style="stop-color:#141E40"/>
			<stop  offset="0.3744" style="stop-color:#172045"/>
			<stop  offset="0.9616" style="stop-color:#172F56"/>
			<stop  offset="1" style="stop-color:#172F56"/>
		</linearGradient>
		<polygon id="XMLID_27_" class="st2" points="44.3,46.6 44.3,46.6 44.3,46.6 44.3,46.6 		"/>
	</g>
	<g id="XMLID_22_">
		<defs>
			<path id="XMLID_23_" d="M44.3,46.6L44.3,46.6L44.3,46.6z"/>
		</defs>
		<clipPath id="XMLID_40_">
			<use xlink:href="#XMLID_23_"  style="overflow:visible;"/>
		</clipPath>
		
			<linearGradient id="XMLID_41_" gradientUnits="userSpaceOnUse" x1="-332.3781" y1="367.7082" x2="-331.8077" y2="367.7082" gradientTransform="matrix(125.3554 -43.1634 -43.1634 -125.3554 57561.2383 31801.1797)">
			<stop  offset="0" style="stop-color:#525D64"/>
			<stop  offset="0.1501" style="stop-color:#7A858C"/>
			<stop  offset="0.2332" style="stop-color:#8E9AA2"/>
			<stop  offset="0.4792" style="stop-color:#D8DADC"/>
			<stop  offset="0.5973" style="stop-color:#FFFFFF"/>
			<stop  offset="0.7391" style="stop-color:#FFFFFF"/>
			<stop  offset="0.7696" style="stop-color:#F3F3F4"/>
			<stop  offset="0.8181" style="stop-color:#DCDEE0"/>
			<stop  offset="0.8784" style="stop-color:#BAC0C4"/>
			<stop  offset="0.9475" style="stop-color:#8F9BA3"/>
			<stop  offset="0.9496" style="stop-color:#8E9AA2"/>
			<stop  offset="1" style="stop-color:#8E9AA2"/>
		</linearGradient>
		<polygon id="XMLID_24_" class="st3" points="44.3,46.6 44.3,46.6 44.3,46.6 44.3,46.6 		"/>
	</g>
	<g id="XMLID_16_">
		<g id="XMLID_17_">
			<defs>
				<path id="XMLID_18_" d="M44.3,46.6"/>
			</defs>
			<clipPath id="XMLID_42_">
				<use xlink:href="#XMLID_18_"  style="overflow:visible;"/>
			</clipPath>
			<g id="XMLID_19_" class="st4">
				<defs>
					<path id="XMLID_20_" d="M44.3,46.6"/>
				</defs>
				<clipPath id="XMLID_43_">
					<use xlink:href="#XMLID_20_"  style="overflow:visible;"/>
				</clipPath>
				
					<linearGradient id="XMLID_44_" gradientUnits="userSpaceOnUse" x1="-332.2185" y1="367.7083" x2="-332.2185" y2="367.7083" gradientTransform="matrix(125.3554 -43.1634 -43.1634 -125.3554 57561.2461 31801.1973)">
					<stop  offset="0" style="stop-color:#525D64"/>
					<stop  offset="0.1501" style="stop-color:#7A858C"/>
					<stop  offset="0.2332" style="stop-color:#8E9AA2"/>
					<stop  offset="0.4792" style="stop-color:#D8DADC"/>
					<stop  offset="0.5973" style="stop-color:#FFFFFF"/>
					<stop  offset="0.7391" style="stop-color:#FFFFFF"/>
					<stop  offset="0.7696" style="stop-color:#F3F3F4"/>
					<stop  offset="0.8181" style="stop-color:#DCDEE0"/>
					<stop  offset="0.8784" style="stop-color:#BAC0C4"/>
					<stop  offset="0.9475" style="stop-color:#8F9BA3"/>
					<stop  offset="0.9496" style="stop-color:#8E9AA2"/>
					<stop  offset="1" style="stop-color:#8E9AA2"/>
				</linearGradient>
				<path id="XMLID_21_" class="st5" d="M44.3,46.6"/>
			</g>
		</g>
	</g>
	<g id="XMLID_3_">
		<polygon id="XMLID_15_" class="st0" points="41.7,115.3 41.7,116.7 43.6,116.7 43.6,117.4 41.7,117.4 41.7,119.4 41,119.4 
			41,114.6 44,114.6 44,115.3 		"/>
		<polygon id="XMLID_14_" class="st0" points="47.9,119.4 47.9,114.6 51,114.6 51,115.3 48.6,115.3 48.6,116.7 50.6,116.7 
			50.6,117.3 48.6,117.3 48.6,118.7 51,118.7 51,119.4 		"/>
		<polygon id="XMLID_13_" class="st0" points="58,119.4 55.8,116 55.8,119.4 55.1,119.4 55.1,114.6 55.8,114.6 58,118 58,114.6 
			58.7,114.6 58.7,119.4 		"/>
		<path id="XMLID_12_" class="st0" d="M64.3,119.4c-0.5,0-0.9-0.2-1.2-0.5c-0.5-0.5-0.5-1-0.5-1.9c0-0.9,0-1.4,0.5-1.9
			c0.3-0.3,0.8-0.5,1.2-0.5c0.9,0,1.5,0.5,1.7,1.5h-0.7c-0.1-0.5-0.4-0.8-1-0.8c-0.3,0-0.5,0.1-0.7,0.3c-0.2,0.3-0.3,0.5-0.3,1.5
			c0,1,0.1,1.2,0.3,1.5c0.2,0.2,0.4,0.3,0.7,0.3c0.5,0,0.9-0.3,1-0.8h0.7C65.8,118.9,65.1,119.4,64.3,119.4"/>
		<rect id="XMLID_11_" x="70" y="114.6" class="st0" width="0.7" height="4.7"/>
		<polygon id="XMLID_10_" class="st0" points="78.1,119.4 76,116 76,119.4 75.2,119.4 75.2,114.6 75.9,114.6 78.1,118 78.1,114.6 
			78.8,114.6 78.8,119.4 		"/>
		<path id="XMLID_9_" class="st0" d="M85.5,118.9c-0.4,0.4-0.8,0.5-1.3,0.5c-0.5,0-0.9-0.2-1.2-0.5c-0.5-0.5-0.5-1-0.5-1.9
			c0-0.9,0-1.4,0.5-1.9c0.3-0.3,0.7-0.5,1.2-0.5c1,0,1.6,0.7,1.7,1.5h-0.7c-0.1-0.5-0.5-0.8-1-0.8c-0.3,0-0.5,0.1-0.7,0.3
			c-0.2,0.3-0.3,0.5-0.3,1.5c0,1,0.1,1.2,0.3,1.5c0.2,0.2,0.4,0.3,0.7,0.3c0.3,0,0.6-0.1,0.8-0.3c0.2-0.2,0.2-0.4,0.2-0.7v-0.3h-1
			v-0.6h1.7v0.7C85.9,118.2,85.8,118.5,85.5,118.9"/>
		<path id="XMLID_6_" class="st0" d="M91.8,108.6l0-7.8c0,0,0-0.5-0.4-0.8c-0.8-0.5-3.7-2.1-7.7-2.1c-4.1,0-7,1.6-7.7,2.1
			c-0.4,0.3-0.4,0.8-0.4,0.8l0,7.8h2.3v-3.7h5.9h5.9v3.7H91.8z M83.6,102.7h-5.9l0-1.2l0.1-0.1c1-0.5,3.1-1.3,5.7-1.3h0h0
			c2.7,0,4.7,0.8,5.7,1.3l0.1,0.1l0,1.2H83.6z"/>
		<path id="XMLID_5_" class="st0" d="M51.4,99.2h-2.3l0,7.1l-0.1,0.1c-1,0.5-3.1,1.3-5.7,1.3h0h0c-2.7,0-4.7-0.8-5.7-1.3l-0.1-0.1
			l0-7.1h-2.3l0,7.8c0,0,0,0.5,0.4,0.8c0.8,0.5,3.7,2.1,7.7,2.1c4.1,0,7-1.6,7.7-2.1c0.4-0.3,0.4-0.8,0.4-0.8V99.2z"/>
		<path id="XMLID_4_" class="st0" d="M71.6,102.7h-14l0-1.2l0.1-0.1c1-0.5,3.1-1.3,5.7-1.3h0.1c2.5,0,4.6,0.8,5.6,1.3l2.5-0.8
			c0-0.2-0.1-0.5-0.4-0.6c-0.8-0.5-3.7-2.1-7.7-2.1c-4.1,0-7,1.6-7.8,2.1c-0.4,0.3-0.4,0.8-0.4,0.8l0,4.1h14l0,1.3l-0.1,0.1
			c-1,0.5-3.1,1.3-5.7,1.3h-0.1c-2.5,0-4.6-0.8-5.6-1.3l-2.5,0.8c0,0.2,0.1,0.5,0.4,0.6c0.8,0.5,3.7,2.1,7.7,2.1
			c4.1,0,7-1.6,7.8-2.1c0.4-0.3,0.4-0.8,0.4-0.8L71.6,102.7z"/>
	</g>
</g>
</svg>
