<?xml version="1.0" encoding="utf-8"?>
<!-- Svg Vector Icons : http://www.onlinewebfonts.com/icon -->
<!DOCTYPE svg PUBLIC "-//W3C//DTD SVG 1.1//EN" "http://www.w3.org/Graphics/SVG/1.1/DTD/svg11.dtd">
<svg version="1.1" xmlns="http://www.w3.org/2000/svg" xmlns:xlink="http://www.w3.org/1999/xlink" x="0px" y="0px" viewBox="0 0 1000 1000" enable-background="new 0 0 1000 1000" xml:space="preserve">
<metadata> Svg Vector Icons : http://www.onlinewebfonts.com/icon </metadata>
<g><g transform="translate(0.000000,512.000000) scale(0.100000,-0.100000)"><path d="M3318.2,5011.5c-48-19.2-103.7-90.2-103.7-134.4c0-15.4,76.8-163.2,172.8-326.4l170.9-297.6l-61.4-48c-124.8-94.1-345.6-320.6-443.5-451.2c-303.3-403.2-458.9-827.5-497.3-1347.8l-9.6-121h2457.5h2455.5l-9.6,82.5c-5.7,44.2-15.4,140.2-23,211.2c-23,265-149.8,647-299.5,902.3c-153.6,266.9-401.3,552.9-624,723.8l-61.4,48l170.9,297.6c96,163.2,172.8,311,172.8,330.2c0,17.3-21.1,55.7-44.1,84.5c-49.9,57.6-142.1,71-193.9,28.8c-15.4-13.4-99.8-145.9-186.2-295.7c-86.4-149.8-159.4-274.6-161.3-278.4c-3.8-3.8-59.5,21.1-124.8,53.8c-291.8,147.8-733.4,249.6-1075.1,249.6c-337.9,0-787.2-103.7-1073.2-249.6c-67.2-32.6-122.9-57.6-126.7-53.8c-1.9,3.8-74.9,128.6-161.3,278.4c-86.4,149.7-169,280.3-180.5,289.9C3419.9,5019.1,3360.4,5028.7,3318.2,5011.5z M4212.8,3778.9c220.8-111.4,236.1-389.7,32.6-541.4c-40.3-30.7-82.6-40.3-167-40.3c-126.7,0-190.1,34.6-263,144c-61.4,88.3-61.4,238.1,0,328.3c46.1,71,186.2,151.7,263,151.7C4105.3,3821.1,4166.8,3801.9,4212.8,3778.9z M6055.9,3778.9c220.8-111.4,236.2-389.7,32.6-541.4c-40.3-30.7-82.5-40.3-167-40.3c-126.7,0-190.1,34.6-263,144c-61.4,88.3-61.4,238.1,0,328.3c46.1,71,186.3,151.7,263,151.7C5948.4,3821.1,6009.9,3801.9,6055.9,3778.9z"/><path d="M1477,2248.7c-174.7-46.1-330.2-176.6-410.9-347.5l-49.9-105.6V432.5V-930.6l63.4-128.6c107.5-218.9,303.3-341.7,541.4-341.7c236.1,0,435.8,124.8,541.4,341.7l63.3,128.6V432.5v1363.1l-49.9,105.6c-99.8,209.3-291.8,341.7-512.6,355.2C1592.2,2260.3,1509.6,2258.3,1477,2248.7z"/><path d="M8235,2248.7c-176.6-46.1-330.2-176.6-410.9-345.6l-49.9-107.5V432.5V-930.6l63.4-128.6c107.5-218.9,303.3-341.7,541.4-341.7c236.2,0,435.8,124.8,541.4,341.7l63.3,128.6V432.5v1363.1l-49.9,107.5c-99.8,209.3-288,339.8-512.6,353.3C8350.2,2260.3,8267.7,2258.3,8235,2248.7z"/><path d="M2542.5-335.4v-2294.3h305.3H3155l5.8-840.9l5.8-839l63.4-128.6c107.5-218.9,303.3-341.7,541.4-341.7c236.1,0,435.8,124.8,541.4,341.7l63.3,128.6l5.8,839l5.8,840.9H5000h612.5l5.8-840.9l5.7-839l63.4-128.6c107.5-218.9,303.3-341.7,541.4-341.7c236.1,0,435.8,124.8,541.4,341.7l63.4,128.6l5.8,839l5.7,840.9h307.2h305.3v2294.3v2294.3H5000H2542.5V-335.4z"/></g></g>
</svg>